<svg width="48" height="47" viewBox="0 0 48 47" fill="none" xmlns="http://www.w3.org/2000/svg">
<mask id="mask0_455_3901" style="mask-type:luminance" maskUnits="userSpaceOnUse" x="0" y="0" width="48" height="47">
<path d="M24 46C26.9553 46.0038 29.8822 45.4236 32.6126 44.2926C35.3429 43.1616 37.8228 41.5022 39.9098 39.4098C42.0022 37.3228 43.6616 34.8429 44.7926 32.1126C45.9236 29.3822 46.5038 26.4553 46.5 23.5C46.5038 20.5447 45.9235 17.6178 44.7925 14.8875C43.6616 12.1572 42.0022 9.67726 39.9098 7.59027C37.8228 5.4978 35.3429 3.83839 32.6126 2.70741C29.8822 1.57644 26.9553 0.99619 24 1.00002C21.0447 0.996251 18.1178 1.57653 15.3875 2.7075C12.6572 3.83847 10.1773 5.49785 8.09027 7.59027C5.99785 9.67726 4.33847 12.1572 3.2075 14.8875C2.07653 17.6178 1.49625 20.5447 1.50002 23.5C1.49619 26.4553 2.07644 29.3822 3.20741 32.1126C4.33839 34.8429 5.9978 37.3228 8.09027 39.4098C10.1773 41.5022 12.6572 43.1616 15.3875 44.2925C18.1178 45.4235 21.0447 46.0038 24 46Z" fill="white" stroke="white" stroke-width="2" stroke-linejoin="round"/>
<path d="M15 23.5L21.75 30.25L35.25 16.75" stroke="black" stroke-width="2" stroke-linecap="round" stroke-linejoin="round"/>
</mask>
<g mask="url(#mask0_455_3901)">
<path d="M-3 -3.5H51V50.5H-3V-3.5Z" fill="#40B87C"/>
</g>
</svg>
