<svg width="33" height="32" viewBox="0 0 33 32" fill="none" xmlns="http://www.w3.org/2000/svg">
<g clip-path="url(#clip0_350_10789)">
<path d="M32.5 16C32.5 7.1635 25.3365 0 16.5 0C7.6635 0 0.5 7.16337 0.5 16C0.5 23.986 6.351 30.6054 14 31.8056V20.625H9.9375V16H14V12.475C14 8.465 16.3888 6.25 20.0434 6.25C21.794 6.25 23.625 6.5625 23.625 6.5625V10.5H21.6075C19.6198 10.5 19 11.7334 19 12.9987V16H23.4375L22.7281 20.625H19V31.8056C26.649 30.6054 32.5 23.9861 32.5 16Z" fill="#1877F2"/>
<path d="M22.7281 20.625L23.4375 16H19V12.9987C19 11.7332 19.6199 10.5 21.6075 10.5H23.625V6.5625C23.625 6.5625 21.794 6.25 20.0434 6.25C16.3888 6.25 14 8.465 14 12.475V16H9.9375V20.625H14V31.8056C14.827 31.9352 15.6629 32.0002 16.5 32C17.3371 32.0002 18.173 31.9353 19 31.8056V20.625H22.7281Z" fill="white"/>
</g>
<defs>
<clipPath id="clip0_350_10789">
<rect width="32" height="32" fill="white" transform="translate(0.5)"/>
</clipPath>
</defs>
</svg>
