<svg width="238" height="50" viewBox="0 0 238 50" fill="none" xmlns="http://www.w3.org/2000/svg">
<path d="M42.5593 12.344H51.5833C57.4393 12.344 63.0073 16.056 63.0073 23.672C63.0073 31.704 56.0312 35 51.1033 35H42.5593V12.344ZM46.5913 31.352H49.7593C54.5913 31.352 58.7833 29.176 58.7833 23.672C58.7833 18.168 55.2313 15.992 50.3033 15.992H46.5913V31.352ZM68.4405 12.12C69.8485 12.12 70.9365 13.112 70.9365 14.424C70.9365 15.8 69.8165 16.728 68.4405 16.728C67.0645 16.728 66.0085 15.672 66.0085 14.424C66.0085 13.176 67.0645 12.12 68.4405 12.12ZM70.3925 19.64V35H66.5525V19.64H70.3925ZM79.377 35.384C76.209 35.384 73.777 33.592 73.777 30.776C73.777 27.224 76.625 25.432 83.217 25.432H84.401V24.984C84.401 23.192 82.993 22.136 80.881 22.136C79.281 22.136 77.841 22.776 76.785 23.736L74.769 21.72C76.145 20.312 78.289 19.256 81.297 19.256C86.545 19.256 87.857 22.2 87.857 25.816V35H84.401V32.888H84.305C83.217 34.616 81.425 35.384 79.377 35.384ZM83.057 28.12C79.665 28.12 77.617 28.856 77.617 30.488C77.617 31.8 78.897 32.504 80.337 32.504C82.961 32.504 84.177 31.032 84.177 29.08V28.12H83.057ZM103.093 11.768C106.325 11.768 108.885 12.92 111.029 15.352L107.892 17.656C106.581 16.248 105.109 15.416 103.125 15.416C98.4845 15.416 95.3485 19 95.3485 23.512C95.3485 28.184 98.3565 31.928 103.125 31.928C105.269 31.928 106.933 30.808 108.213 29.176L111.541 31.544C109.589 34.296 106.421 35.576 103.093 35.576C96.1165 35.576 91.1245 30.808 91.1245 23.768C91.1245 16.728 95.8605 11.768 103.093 11.768ZM113.895 19.64H117.735V27.576C117.735 30.648 118.695 31.928 120.551 31.928C122.823 31.928 124.071 30.392 124.071 28.024V19.64H127.911V35H124.263V32.536H124.199C123.303 34.456 121.671 35.384 119.495 35.384C115.015 35.384 113.895 31.992 113.895 29.464V19.64ZM132.27 35V19.64H136.11V22.072H136.174C137.006 20.312 138.702 19.256 140.718 19.256C141.294 19.256 141.582 19.352 142.094 19.48V23.192C141.358 23 140.814 22.904 140.238 22.904C137.326 22.904 136.11 24.952 136.11 27V35H132.27ZM149.283 35.384C146.115 35.384 143.683 33.592 143.683 30.776C143.683 27.224 146.531 25.432 153.123 25.432H154.307V24.984C154.307 23.192 152.899 22.136 150.787 22.136C149.187 22.136 147.747 22.776 146.691 23.736L144.675 21.72C146.051 20.312 148.195 19.256 151.203 19.256C156.451 19.256 157.763 22.2 157.763 25.816V35H154.307V32.888H154.211C153.123 34.616 151.331 35.384 149.283 35.384ZM152.963 28.12C149.571 28.12 147.523 28.856 147.523 30.488C147.523 31.8 148.803 32.504 150.243 32.504C152.867 32.504 154.083 31.032 154.083 29.08V28.12H152.963ZM168.711 25.496V28.76H160.807V25.496H168.711Z" fill="#107BC0"/>
<path d="M172.437 35V12.344H178.581L184.629 28.216L190.741 12.344H196.821V35H192.981V16.184H192.917L186.037 35H183.221L176.341 16.184H176.277V35H172.437ZM209.198 19.256C214.062 19.256 216.398 22.936 216.398 27.576V28.664H204.686C204.942 30.872 206.606 32.312 208.814 32.312C210.542 32.312 211.854 31.576 212.942 30.232L215.694 32.312C214.03 34.36 211.822 35.384 209.198 35.384C204.494 35.384 200.846 32.12 200.846 27.32C200.846 22.552 204.494 19.256 209.198 19.256ZM204.686 25.784H212.558C212.526 23.384 210.894 22.136 208.622 22.136C206.35 22.136 204.974 23.608 204.686 25.784ZM231.957 10.808H235.797V35H232.149V32.696H232.085C230.933 34.584 228.917 35.384 226.773 35.384C222.101 35.384 219.221 31.928 219.221 27.32C219.221 22.968 222.101 19.256 226.645 19.256C228.693 19.256 230.549 19.96 231.861 21.592H231.957V10.808ZM223.061 27.32C223.061 29.88 224.885 31.928 227.573 31.928C230.645 31.928 232.085 29.432 232.085 27.32C232.085 24.536 230.005 22.712 227.573 22.712C224.885 22.712 223.061 24.792 223.061 27.32Z" fill="#094063"/>
<path fill-rule="evenodd" clip-rule="evenodd" d="M29.1767 27.8606C30.736 27.8394 31.9831 26.5582 31.9623 24.999C31.9414 23.4397 30.6605 22.1929 29.1012 22.2141L18.851 22.3533L18.7123 11.9792C18.6916 10.4321 17.4207 9.19501 15.8736 9.21602C14.3265 9.23703 13.0891 10.5082 13.1098 12.0553L13.2865 25.2747C13.3072 26.8217 14.5782 28.0589 16.1252 28.0378C16.1281 28.0378 16.1309 28.0378 16.1338 28.0377C16.1386 28.0377 16.1435 28.0376 16.1484 28.0375L29.1767 27.8606Z" fill="#107BC0"/>
<path fill-rule="evenodd" clip-rule="evenodd" d="M13.0732 38.1988C13.0732 39.746 14.3275 41.0003 15.8747 41.0003C17.4219 41.0003 18.6762 39.746 18.6762 38.1988V25.0446C18.6764 25.0298 18.6765 25.0151 18.6765 25.0003C18.6765 24.9818 18.6764 24.9633 18.676 24.9448C18.6581 23.413 17.4108 22.1768 15.8747 22.1768C15.8693 22.1768 15.8638 22.1768 15.8583 22.1768C15.8566 22.1768 15.8548 22.1768 15.853 22.1768H2.82353C1.26414 22.1768 0 23.4409 0 25.0003C0 26.5597 1.26413 27.8239 2.82353 27.8239H13.0732V38.1988Z" fill="black"/>
</svg>
