<svg width="32" height="32" viewBox="0 0 32 32" fill="none" xmlns="http://www.w3.org/2000/svg">
<rect width="32" height="32" rx="16" fill="#107BC0"/>
<path fill-rule="evenodd" clip-rule="evenodd" d="M10 11C8.89543 11 8 11.8954 8 13V21C8 22.1046 8.89543 23 10 23H22C23.1046 23 24 22.1046 24 21V13C24 11.8954 23.1046 11 22 11H20.4142C20.149 11 19.8946 10.8946 19.7071 10.7071L18.5858 9.58579C18.2107 9.21071 17.702 9 17.1716 9H14.8284C14.298 9 13.7893 9.21071 13.4142 9.58579L12.2929 10.7071C12.1054 10.8946 11.851 11 11.5858 11H10ZM16 20C17.6569 20 19 18.6569 19 17C19 15.3431 17.6569 14 16 14C14.3431 14 13 15.3431 13 17C13 18.6569 14.3431 20 16 20Z" fill="white"/>
</svg>
