<svg width="182" height="161" viewBox="0 0 182 161" fill="none" xmlns="http://www.w3.org/2000/svg">
<path id="Ellipse 408" d="M168.433 55.9619C175.186 54.79 181.7 59.3241 181.943 66.1731C182.37 78.2028 180.407 90.2406 176.121 101.577C170.368 116.797 160.639 130.197 147.947 140.379C135.255 150.562 120.066 157.155 103.96 159.473C87.8543 161.79 71.4219 159.747 56.3742 153.555C41.3266 147.364 28.2143 137.251 18.4032 124.27C8.59198 111.289 2.44081 95.9152 0.590361 79.7492C-1.26009 63.5832 1.25788 47.2167 7.88199 32.3545C12.8157 21.2849 19.893 11.3514 28.6623 3.10549C33.655 -1.58927 41.4736 -0.226202 45.4461 5.35844C49.4185 10.9431 48.0045 18.6225 43.2583 23.5663C37.9842 29.0599 33.676 35.4455 30.5505 42.4579C25.733 53.2668 23.9017 65.1697 25.2475 76.9268C26.5933 88.6839 31.0669 99.8651 38.2023 109.306C45.3377 118.746 54.8739 126.101 65.8176 130.604C76.7613 135.107 88.7122 136.593 100.425 134.908C112.139 133.222 123.186 128.427 132.416 121.022C141.646 113.616 148.722 103.871 152.907 92.8016C155.621 85.6201 157.054 78.0516 157.174 70.4371C157.281 63.5846 161.681 57.1338 168.433 55.9619Z" fill="url(#paint0_linear_1571_9387)"/>
<defs>
<linearGradient id="paint0_linear_1571_9387" x1="-42" y1="-42.5" x2="238.5" y2="160" gradientUnits="userSpaceOnUse">
<stop offset="0.509404" stop-color="#107BC0"/>
<stop offset="1" stop-color="#116195"/>
</linearGradient>
</defs>
</svg>
