<svg width="96" height="96" viewBox="0 0 96 96" fill="none" xmlns="http://www.w3.org/2000/svg">
<path opacity="0.4" d="M48.4789 51.1199C48.1989 51.0799 47.8389 51.0799 47.5189 51.1199C40.4789 50.8799 34.8789 45.1199 34.8789 38.0399C34.8789 30.7999 40.7189 24.9199 47.9989 24.9199C55.2389 24.9199 61.1189 30.7999 61.1189 38.0399C61.0789 45.1199 55.5189 50.8799 48.4789 51.1199Z" stroke="#666666" stroke-width="1.5" stroke-linecap="round" stroke-linejoin="round"/>
<path opacity="0.34" d="M74.9591 77.5202C67.8391 84.0402 58.3991 88.0002 47.9991 88.0002C37.5991 88.0002 28.1591 84.0402 21.0391 77.5202C21.4391 73.7602 23.8391 70.0802 28.1191 67.2002C39.0791 59.9202 56.9991 59.9202 67.8791 67.2002C72.1591 70.0802 74.5591 73.7602 74.9591 77.5202Z" stroke="#666666" stroke-width="1.5" stroke-linecap="round" stroke-linejoin="round"/>
<path d="M48 88C70.0914 88 88 70.0914 88 48C88 25.9086 70.0914 8 48 8C25.9086 8 8 25.9086 8 48C8 70.0914 25.9086 88 48 88Z" stroke="#666666" stroke-width="1.5" stroke-linecap="round" stroke-linejoin="round"/>
</svg>
