<svg width="23" height="24" viewBox="0 0 23 24" fill="none" xmlns="http://www.w3.org/2000/svg">
<path d="M20.63 18.5536C20.0261 17.9805 19.4974 17.3235 19.0582 16.6003C18.5786 15.602 18.2912 14.5117 18.2128 13.3936V10.1003C18.2169 8.344 17.6185 6.64658 16.53 5.32691C15.4414 4.00724 13.9377 3.15617 12.3013 2.93359V2.07359C12.3013 1.83755 12.2132 1.61118 12.0564 1.44427C11.8997 1.27736 11.687 1.18359 11.4653 1.18359C11.2436 1.18359 11.0309 1.27736 10.8742 1.44427C10.7174 1.61118 10.6293 1.83755 10.6293 2.07359V2.94693C9.00757 3.18555 7.522 4.04176 6.44776 5.357C5.37352 6.67223 4.7834 8.35736 4.7867 10.1003V13.3936C4.70827 14.5117 4.42085 15.602 3.94131 16.6003C3.50977 17.3218 2.98958 17.9788 2.39455 18.5536C2.32776 18.6161 2.27422 18.693 2.23751 18.7792C2.2008 18.8654 2.18175 18.9589 2.18164 19.0536V19.9603C2.18164 20.1371 2.24762 20.3066 2.36506 20.4317C2.48249 20.5567 2.64177 20.6269 2.80786 20.6269H20.2167C20.3828 20.6269 20.542 20.5567 20.6595 20.4317C20.7769 20.3066 20.8429 20.1371 20.8429 19.9603V19.0536C20.8428 18.9589 20.8237 18.8654 20.787 18.7792C20.7503 18.693 20.6968 18.6161 20.63 18.5536ZM3.48417 19.2936C4.06681 18.6944 4.5798 18.0229 5.01214 17.2936C5.6162 16.0879 5.96864 14.7576 6.0454 13.3936V10.1003C6.02056 9.31895 6.14367 8.54031 6.40738 7.81071C6.67109 7.0811 7.07002 6.41545 7.58041 5.85339C8.0908 5.29134 8.70221 4.84437 9.37824 4.53911C10.0543 4.23385 10.7811 4.07653 11.5154 4.07653C12.2497 4.07653 12.9765 4.23385 13.6526 4.53911C14.3286 4.84437 14.94 5.29134 15.4504 5.85339C15.9608 6.41545 16.3597 7.0811 16.6234 7.81071C16.8871 8.54031 17.0102 9.31895 16.9854 10.1003V13.3936C17.0622 14.7576 17.4146 16.0879 18.0187 17.2936C18.451 18.0229 18.964 18.6944 19.5466 19.2936H3.48417Z" fill="#107BC0"/>
<path d="M11.5435 22.853C11.938 22.8433 12.3165 22.6855 12.6122 22.4073C12.9079 22.1291 13.1016 21.7486 13.1591 21.333H9.86523C9.9244 21.7599 10.1272 22.1493 10.4359 22.4289C10.7446 22.7085 11.1382 22.8592 11.5435 22.853Z" fill="#107BC0"/>
</svg>
