<svg width="36" height="36" viewBox="0 0 36 36" fill="none" xmlns="http://www.w3.org/2000/svg">
<rect width="36" height="36" rx="18" fill="#107BC0"/>
<path fill-rule="evenodd" clip-rule="evenodd" d="M11.3992 12.4998C10.1842 12.4998 9.19922 13.4848 9.19922 14.6998V23.4998C9.19922 24.7148 10.1842 25.6998 11.3992 25.6998H24.5992C25.8142 25.6998 26.7992 24.7148 26.7992 23.4998V14.6998C26.7992 13.4848 25.8142 12.4998 24.5992 12.4998H22.8549C22.5631 12.4998 22.2833 12.3839 22.077 12.1776L20.8436 10.9442C20.431 10.5316 19.8714 10.2998 19.2879 10.2998H16.7105C16.127 10.2998 15.5674 10.5316 15.1549 10.9442L13.9214 12.1776C13.7151 12.3839 13.4353 12.4998 13.1436 12.4998H11.3992ZM17.9992 22.3998C19.8218 22.3998 21.2992 20.9223 21.2992 19.0998C21.2992 17.2773 19.8218 15.7998 17.9992 15.7998C16.1767 15.7998 14.6992 17.2773 14.6992 19.0998C14.6992 20.9223 16.1767 22.3998 17.9992 22.3998Z" fill="white"/>
</svg>
