<svg width="25" height="24" viewBox="0 0 25 24" fill="none" xmlns="http://www.w3.org/2000/svg">
<path d="M10.3809 4.5C10.3146 4.5 10.251 4.52634 10.2041 4.57322C10.1572 4.62011 10.1309 4.6837 10.1309 4.75V8.75C10.1309 8.94891 10.0518 9.13968 9.91119 9.28033C9.77054 9.42098 9.57977 9.5 9.38086 9.5H5.38086C5.31456 9.5 5.25097 9.52634 5.20408 9.57322C5.1572 9.62011 5.13086 9.6837 5.13086 9.75V14.25C5.13086 14.388 5.24286 14.5 5.38086 14.5H9.38086C9.57977 14.5 9.77054 14.579 9.91119 14.7197C10.0518 14.8603 10.1309 15.0511 10.1309 15.25V19.25C10.1309 19.388 10.2429 19.5 10.3809 19.5H14.8809C14.9472 19.5 15.0108 19.4737 15.0576 19.4268C15.1045 19.3799 15.1309 19.3163 15.1309 19.25V15.25C15.1309 15.0511 15.2099 14.8603 15.3505 14.7197C15.4912 14.579 15.6819 14.5 15.8809 14.5H19.8809C19.9472 14.5 20.0108 14.4737 20.0576 14.4268C20.1045 14.3799 20.1309 14.3163 20.1309 14.25V9.75C20.1309 9.6837 20.1045 9.62011 20.0576 9.57322C20.0108 9.52634 19.9472 9.5 19.8809 9.5H15.8809C15.6819 9.5 15.4912 9.42098 15.3505 9.28033C15.2099 9.13968 15.1309 8.94891 15.1309 8.75V4.75C15.1309 4.6837 15.1045 4.62011 15.0576 4.57322C15.0108 4.52634 14.9472 4.5 14.8809 4.5H10.3809ZM8.63086 4.75C8.63086 3.784 9.41486 3 10.3809 3H14.8809C15.8469 3 16.6309 3.784 16.6309 4.75V8H19.8809C20.8469 8 21.6309 8.784 21.6309 9.75V14.25C21.6309 14.7141 21.4465 15.1592 21.1183 15.4874C20.7901 15.8156 20.345 16 19.8809 16H16.6309V19.25C16.6309 19.7141 16.4465 20.1592 16.1183 20.4874C15.7901 20.8156 15.345 21 14.8809 21H10.3809C9.91673 21 9.47161 20.8156 9.14342 20.4874C8.81523 20.1592 8.63086 19.7141 8.63086 19.25V16H5.38086C4.91673 16 4.47161 15.8156 4.14342 15.4874C3.81523 15.1592 3.63086 14.7141 3.63086 14.25V9.75C3.63086 8.784 4.41486 8 5.38086 8H8.63086V4.75Z" fill="#CFE5F2"/>
</svg>
