<svg width="20" height="21" viewBox="0 0 20 21" fill="none" xmlns="http://www.w3.org/2000/svg">
<path d="M11.4993 10.5C11.4993 11.3284 10.8277 12 9.99928 12C9.17085 12 8.49928 11.3284 8.49928 10.5C8.49928 9.67157 9.17085 9 9.99928 9C10.8277 9 11.4993 9.67157 11.4993 10.5ZM0.982492 10.5C2.23851 6.72292 5.80152 4 9.99924 4C14.1969 4 17.7599 6.72289 19.016 10.5C17.76 14.2771 14.1969 17 9.99922 17C5.80153 17 2.23853 14.2771 0.982492 10.5ZM9.99928 15C12.4846 15 14.4993 12.9853 14.4993 10.5C14.4993 8.01472 12.4846 6 9.99928 6C7.514 6 5.49928 8.01472 5.49928 10.5C5.49928 12.9853 7.514 15 9.99928 15Z" fill="#262626" stroke="#262626"/>
</svg>
