<svg width="24" height="25" viewBox="0 0 24 25" fill="none" xmlns="http://www.w3.org/2000/svg">
<path d="M8.68387 13.8419C8.88616 13.4381 9 12.9824 9 12.5C9 12.0176 8.88616 11.5619 8.68387 11.1581M8.68387 13.8419C8.19134 14.8251 7.17449 15.5 6 15.5C4.34315 15.5 3 14.1569 3 12.5C3 10.8431 4.34315 9.5 6 9.5C7.17449 9.5 8.19134 10.1749 8.68387 11.1581M8.68387 13.8419L15.3161 17.1581M8.68387 11.1581L15.3161 7.84193M15.3161 7.84193C15.8087 8.82508 16.8255 9.5 18 9.5C19.6569 9.5 21 8.15685 21 6.5C21 4.84315 19.6569 3.5 18 3.5C16.3431 3.5 15 4.84315 15 6.5C15 6.98237 15.1138 7.43815 15.3161 7.84193ZM15.3161 17.1581C15.1138 17.5619 15 18.0176 15 18.5C15 20.1569 16.3431 21.5 18 21.5C19.6569 21.5 21 20.1569 21 18.5C21 16.8431 19.6569 15.5 18 15.5C16.8255 15.5 15.8087 16.1749 15.3161 17.1581Z" stroke="#262626" stroke-width="2" stroke-linecap="round" stroke-linejoin="round"/>
</svg>
