<svg width="100" height="100" viewBox="0 0 100 100" fill="none" xmlns="http://www.w3.org/2000/svg">
<g clip-path="url(#clip0_1288_12593)">
<path d="M29.1648 75C23.9659 75 18.98 73.0246 15.3039 69.5083C11.6277 65.9919 9.5625 61.2228 9.5625 56.25C9.5625 51.2772 11.6277 46.5081 15.3039 42.9917C18.98 39.4754 23.9659 37.5 29.1648 37.5C30.3926 32.0299 33.9846 27.2228 39.1506 24.1363C41.7085 22.608 44.5758 21.5481 47.5888 21.0171C50.6019 20.4862 53.7016 20.4945 56.7111 21.0417C59.7205 21.5888 62.5808 22.6641 65.1285 24.2062C67.6762 25.7482 69.8615 27.7267 71.5596 30.0289C73.2577 32.331 74.4354 34.9116 75.0254 37.6233C75.6153 40.3351 75.6061 43.1248 74.9981 45.8333H79.1648C83.0325 45.8333 86.7418 47.3698 89.4768 50.1047C92.2117 52.8396 93.7481 56.5489 93.7481 60.4167C93.7481 64.2844 92.2117 67.9937 89.4768 70.7286C86.7418 73.4636 83.0325 75 79.1648 75H29.1648Z" fill="#107BC0" stroke="#107BC0" stroke-width="2" stroke-linecap="round" stroke-linejoin="round"/>
<path d="M38.5938 58.1143L51.0937 45.6143L63.5937 58.1143" stroke="white" stroke-width="4" stroke-linecap="round" stroke-linejoin="round"/>
<path d="M50.8789 49.1228L50.8789 68.421" stroke="white" stroke-width="4" stroke-linecap="round" stroke-linejoin="round"/>
</g>
<defs>
<clipPath id="clip0_1288_12593">
<rect width="100" height="100" fill="white"/>
</clipPath>
</defs>
</svg>
