<svg width="24" height="24" viewBox="0 0 24 24" fill="none" xmlns="http://www.w3.org/2000/svg">
<circle cx="12" cy="12" r="12" fill="#CFE5F2"/>
<path d="M15.8438 15.3516H14.1328V18H12.8672V15.3516H7.34375V14.2578L12.7812 6.51562H14.1328V14.1797H15.8438V15.3516ZM12.8672 14.1797V10.4453C12.8672 10.1589 12.8698 9.90104 12.875 9.67188C12.8802 9.4375 12.888 9.22135 12.8984 9.02344C12.9089 8.82031 12.9167 8.6276 12.9219 8.44531C12.9323 8.26302 12.9401 8.08333 12.9453 7.90625H12.8828C12.7839 8.11458 12.6693 8.33594 12.5391 8.57031C12.4141 8.79948 12.2865 9.00521 12.1562 9.1875L8.63281 14.1797H12.8672Z" fill="#0D67A0"/>
</svg>
