<svg width="24" height="24" viewBox="0 0 24 24" fill="none" xmlns="http://www.w3.org/2000/svg">
<circle cx="12" cy="12" r="12" fill="#CFE5F2"/>
<path d="M14.8516 9.24219C14.8516 9.7526 14.7526 10.1953 14.5547 10.5703C14.3568 10.9453 14.0807 11.2526 13.7266 11.4922C13.3724 11.7266 12.9557 11.8906 12.4766 11.9844V12.0469C13.3828 12.1615 14.0625 12.4531 14.5156 12.9219C14.974 13.3906 15.2031 14.0052 15.2031 14.7656C15.2031 15.4271 15.0469 16.013 14.7344 16.5234C14.4271 17.0339 13.9531 17.4349 13.3125 17.7266C12.6771 18.013 11.862 18.1562 10.8672 18.1562C10.263 18.1562 9.70312 18.1068 9.1875 18.0078C8.67708 17.9141 8.1875 17.7552 7.71875 17.5312V16.3125C8.19271 16.5469 8.70833 16.7318 9.26562 16.8672C9.82292 16.9974 10.362 17.0625 10.8828 17.0625C11.9245 17.0625 12.6771 16.8568 13.1406 16.4453C13.6042 16.0286 13.8359 15.4609 13.8359 14.7422C13.8359 14.2474 13.7057 13.849 13.4453 13.5469C13.1901 13.2396 12.8203 13.0156 12.3359 12.875C11.8568 12.7292 11.2786 12.6562 10.6016 12.6562H9.46094V11.5469H10.6094C11.2292 11.5469 11.7552 11.4557 12.1875 11.2734C12.6198 11.0911 12.9479 10.8359 13.1719 10.5078C13.401 10.1745 13.5156 9.78125 13.5156 9.32812C13.5156 8.75 13.3229 8.30469 12.9375 7.99219C12.5521 7.67448 12.0286 7.51562 11.3672 7.51562C10.9609 7.51562 10.5911 7.55729 10.2578 7.64062C9.92448 7.72396 9.61198 7.83854 9.32031 7.98438C9.02865 8.13021 8.73698 8.29948 8.44531 8.49219L7.78906 7.60156C8.20573 7.27865 8.71354 7 9.3125 6.76562C9.91146 6.53125 10.5911 6.41406 11.3516 6.41406C12.5182 6.41406 13.3932 6.67969 13.9766 7.21094C14.5599 7.74219 14.8516 8.41927 14.8516 9.24219Z" fill="#0D67A0"/>
</svg>
