<svg width="24" height="24" viewBox="0 0 24 24" fill="none" xmlns="http://www.w3.org/2000/svg">
<circle cx="12" cy="12" r="12" fill="#CFE5F2"/>
<path d="M15.2734 18H7.78906V16.9141L10.8438 13.8125C11.4115 13.2396 11.888 12.7292 12.2734 12.2812C12.6641 11.8333 12.9609 11.3932 13.1641 10.9609C13.3672 10.5234 13.4688 10.0443 13.4688 9.52344C13.4688 8.8776 13.276 8.38542 12.8906 8.04688C12.5104 7.70312 12.0078 7.53125 11.3828 7.53125C10.8359 7.53125 10.3516 7.625 9.92969 7.8125C9.50781 8 9.07552 8.26562 8.63281 8.60938L7.9375 7.73438C8.23958 7.47917 8.56771 7.2526 8.92188 7.05469C9.28125 6.85677 9.66406 6.70052 10.0703 6.58594C10.4818 6.47135 10.9193 6.41406 11.3828 6.41406C12.0859 6.41406 12.6927 6.53646 13.2031 6.78125C13.7135 7.02604 14.1068 7.375 14.3828 7.82812C14.6641 8.28125 14.8047 8.82031 14.8047 9.44531C14.8047 10.0495 14.6849 10.612 14.4453 11.1328C14.2057 11.6484 13.8698 12.1615 13.4375 12.6719C13.0052 13.1771 12.5 13.7135 11.9219 14.2812L9.4375 16.7578V16.8125H15.2734V18Z" fill="#0D67A0"/>
</svg>
