<svg width="32" height="31" viewBox="0 0 32 31" fill="none" xmlns="http://www.w3.org/2000/svg">
<g clip-path="url(#clip0_815_4371)">
<path d="M13.4154 14.2083H8.2487C7.90613 14.2083 7.57759 14.0722 7.33535 13.83C7.09312 13.5878 6.95703 13.2592 6.95703 12.9167V9.04167C6.95703 8.6991 7.09312 8.37056 7.33535 8.12832C7.57759 7.88609 7.90613 7.75 8.2487 7.75H12.1237C12.4663 7.75 12.7948 7.88609 13.037 8.12832C13.2793 8.37056 13.4154 8.6991 13.4154 9.04167V16.7917C13.4154 20.2365 11.6936 22.3885 8.2487 23.25" fill="#107BC0"/>
<path d="M13.4154 14.2083H8.2487C7.90613 14.2083 7.57759 14.0722 7.33535 13.83C7.09312 13.5878 6.95703 13.2592 6.95703 12.9167V9.04167C6.95703 8.6991 7.09312 8.37056 7.33535 8.12832C7.57759 7.88609 7.90613 7.75 8.2487 7.75H12.1237C12.4663 7.75 12.7948 7.88609 13.037 8.12832C13.2793 8.37056 13.4154 8.6991 13.4154 9.04167V16.7917C13.4154 20.2365 11.6936 22.3885 8.2487 23.25" stroke="#107BC0" stroke-width="2" stroke-linecap="round" stroke-linejoin="round"/>
<path d="M25.0404 14.2083H19.8737C19.5311 14.2083 19.2026 14.0722 18.9604 13.83C18.7181 13.5878 18.582 13.2592 18.582 12.9167V9.04167C18.582 8.6991 18.7181 8.37056 18.9604 8.12832C19.2026 7.88609 19.5311 7.75 19.8737 7.75H23.7487C24.0913 7.75 24.4198 7.88609 24.662 8.12832C24.9043 8.37056 25.0404 8.6991 25.0404 9.04167V16.7917C25.0404 20.2365 23.3186 22.3885 19.8737 23.25" fill="#107BC0"/>
<path d="M25.0404 14.2083H19.8737C19.5311 14.2083 19.2026 14.0722 18.9604 13.83C18.7181 13.5878 18.582 13.2592 18.582 12.9167V9.04167C18.582 8.6991 18.7181 8.37056 18.9604 8.12832C19.2026 7.88609 19.5311 7.75 19.8737 7.75H23.7487C24.0913 7.75 24.4198 7.88609 24.662 8.12832C24.9043 8.37056 25.0404 8.6991 25.0404 9.04167V16.7917C25.0404 20.2365 23.3186 22.3885 19.8737 23.25" stroke="#107BC0" stroke-width="2" stroke-linecap="round" stroke-linejoin="round"/>
</g>
<defs>
<clipPath id="clip0_815_4371">
<rect width="31" height="31" fill="white" transform="translate(0.5)"/>
</clipPath>
</defs>
</svg>
