<svg width="97" height="14" viewBox="0 0 97 14" fill="none" xmlns="http://www.w3.org/2000/svg">
<path d="M0.279625 1.672H4.79163C7.71963 1.672 10.5036 3.528 10.5036 7.336C10.5036 11.352 7.01562 13 4.55163 13H0.279625V1.672ZM2.29563 11.176H3.87963C6.29563 11.176 8.39163 10.088 8.39163 7.336C8.39163 4.584 6.61563 3.496 4.15163 3.496H2.29563V11.176ZM13.2203 1.56C13.9243 1.56 14.4683 2.056 14.4683 2.712C14.4683 3.4 13.9083 3.864 13.2203 3.864C12.5323 3.864 12.0043 3.336 12.0043 2.712C12.0043 2.088 12.5323 1.56 13.2203 1.56ZM14.1963 5.32V13H12.2763V5.32H14.1963ZM18.6885 13.192C17.1045 13.192 15.8885 12.296 15.8885 10.888C15.8885 9.112 17.3125 8.216 20.6085 8.216H21.2005V7.992C21.2005 7.096 20.4965 6.568 19.4405 6.568C18.6405 6.568 17.9205 6.888 17.3925 7.368L16.3845 6.36C17.0725 5.656 18.1445 5.128 19.6485 5.128C22.2725 5.128 22.9285 6.6 22.9285 8.408V13H21.2005V11.944H21.1525C20.6085 12.808 19.7125 13.192 18.6885 13.192ZM20.5285 9.56C18.8325 9.56 17.8085 9.928 17.8085 10.744C17.8085 11.4 18.4485 11.752 19.1685 11.752C20.4805 11.752 21.0885 11.016 21.0885 10.04V9.56H20.5285ZM30.5463 1.384C32.1623 1.384 33.4423 1.96 34.5143 3.176L32.9462 4.328C32.2903 3.624 31.5543 3.208 30.5623 3.208C28.2423 3.208 26.6743 5 26.6743 7.256C26.6743 9.592 28.1783 11.464 30.5623 11.464C31.6343 11.464 32.4663 10.904 33.1063 10.088L34.7703 11.272C33.7943 12.648 32.2103 13.288 30.5463 13.288C27.0583 13.288 24.5623 10.904 24.5623 7.384C24.5623 3.864 26.9303 1.384 30.5463 1.384ZM35.9474 5.32H37.8674V9.288C37.8674 10.824 38.3474 11.464 39.2754 11.464C40.4114 11.464 41.0354 10.696 41.0354 9.512V5.32H42.9554V13H41.1314V11.768H41.0994C40.6514 12.728 39.8354 13.192 38.7474 13.192C36.5074 13.192 35.9474 11.496 35.9474 10.232V5.32ZM45.1349 13V5.32H47.0549V6.536H47.0869C47.5029 5.656 48.3509 5.128 49.3589 5.128C49.6469 5.128 49.7909 5.176 50.0469 5.24V7.096C49.6789 7 49.4069 6.952 49.1189 6.952C47.6629 6.952 47.0549 7.976 47.0549 9V13H45.1349ZM53.6416 13.192C52.0576 13.192 50.8416 12.296 50.8416 10.888C50.8416 9.112 52.2656 8.216 55.5616 8.216H56.1536V7.992C56.1536 7.096 55.4496 6.568 54.3936 6.568C53.5936 6.568 52.8736 6.888 52.3456 7.368L51.3376 6.36C52.0256 5.656 53.0976 5.128 54.6016 5.128C57.2256 5.128 57.8816 6.6 57.8816 8.408V13H56.1536V11.944H56.1056C55.5616 12.808 54.6656 13.192 53.6416 13.192ZM55.4816 9.56C53.7856 9.56 52.7616 9.928 52.7616 10.744C52.7616 11.4 53.4016 11.752 54.1216 11.752C55.4336 11.752 56.0416 11.016 56.0416 10.04V9.56H55.4816ZM63.3554 8.248V9.88H59.4034V8.248H63.3554Z" fill="#107BC0"/>
<path d="M65.2183 13V1.672H68.2903L71.3143 9.608L74.3703 1.672H77.4103V13H75.4903V3.592H75.4583L72.0183 13H70.6103L67.1703 3.592H67.1383V13H65.2183ZM83.5988 5.128C86.0308 5.128 87.1988 6.968 87.1988 9.288V9.832H81.3428C81.4708 10.936 82.3028 11.656 83.4068 11.656C84.2708 11.656 84.9268 11.288 85.4708 10.616L86.8468 11.656C86.0148 12.68 84.9108 13.192 83.5988 13.192C81.2468 13.192 79.4228 11.56 79.4228 9.16C79.4228 6.776 81.2468 5.128 83.5988 5.128ZM81.3428 8.392H85.2788C85.2628 7.192 84.4468 6.568 83.3108 6.568C82.1748 6.568 81.4868 7.304 81.3428 8.392ZM94.9783 0.903999H96.8983V13H95.0743V11.848H95.0423C94.4663 12.792 93.4583 13.192 92.3863 13.192C90.0503 13.192 88.6103 11.464 88.6103 9.16C88.6103 6.984 90.0503 5.128 92.3223 5.128C93.3463 5.128 94.2743 5.48 94.9303 6.296H94.9783V0.903999ZM90.5303 9.16C90.5303 10.44 91.4423 11.464 92.7863 11.464C94.3223 11.464 95.0423 10.216 95.0423 9.16C95.0423 7.768 94.0023 6.856 92.7863 6.856C91.4423 6.856 90.5303 7.896 90.5303 9.16Z" fill="#094063"/>
</svg>
