<svg width="239" height="221" viewBox="0 0 239 221" fill="none" xmlns="http://www.w3.org/2000/svg">
<path d="M236.13 116.851H233.917V116.482C233.916 115.474 233.505 114.508 232.774 113.795C232.043 113.083 231.052 112.682 230.019 112.681H228.52C227.486 112.681 226.494 113.081 225.762 113.794C225.03 114.506 224.618 115.473 224.617 116.482V116.851H222.409C222.114 116.85 221.822 116.906 221.549 117.016C221.276 117.126 221.029 117.287 220.82 117.49C220.611 117.694 220.446 117.935 220.334 118.201C220.221 118.467 220.163 118.752 220.164 119.04V129.012C220.164 129.593 220.401 130.15 220.822 130.56C221.243 130.971 221.814 131.201 222.409 131.201H236.13C236.725 131.2 237.296 130.969 237.716 130.559C238.137 130.149 238.374 129.593 238.375 129.012V119.04C238.375 118.459 238.139 117.902 237.718 117.492C237.297 117.081 236.726 116.851 236.13 116.851ZM225.683 116.482C225.685 115.749 225.984 115.047 226.516 114.529C227.048 114.011 227.769 113.721 228.52 113.721H230.019C230.77 113.721 231.49 114.011 232.021 114.529C232.552 115.047 232.851 115.749 232.851 116.482V116.851H225.683V116.482Z" fill="#263238"/>
<path d="M233.356 123.008H230.53V120.258H228.002V123.008H225.176V125.478H228.002V128.229H230.53V125.478H233.356V123.008Z" fill="white"/>
<path d="M231.758 57.4211C231.318 57.4211 230.883 57.3366 230.477 57.1724C230.071 57.0082 229.702 56.7676 229.391 56.4644C229.081 56.1611 228.835 55.8011 228.667 55.4049C228.499 55.0088 228.413 54.5843 228.414 54.1557V45.3581C228.413 44.9295 228.499 44.505 228.667 44.1089C228.835 43.7128 229.081 43.3528 229.391 43.0495C229.702 42.7462 230.071 42.5056 230.477 42.3414C230.883 42.1773 231.318 42.0928 231.758 42.0928C232.197 42.0928 232.632 42.1773 233.038 42.3414C233.445 42.5056 233.813 42.7462 234.124 43.0495C234.434 43.3528 234.681 43.7128 234.848 44.1089C235.016 44.505 235.102 44.9295 235.101 45.3581V54.1401C235.104 54.57 235.02 54.9962 234.853 55.3941C234.686 55.7921 234.44 56.1539 234.13 56.4588C233.819 56.7638 233.449 57.0058 233.042 57.1709C232.635 57.3361 232.199 57.4211 231.758 57.4211Z" fill="white" stroke="#263238" stroke-linecap="round" stroke-linejoin="round"/>
<path d="M231.758 57.4207C231.318 57.4207 230.883 57.3362 230.477 57.172C230.071 57.0078 229.702 56.7672 229.391 56.464C229.081 56.1607 228.835 55.8007 228.667 55.4045C228.499 55.0084 228.413 54.5839 228.414 54.1553V49.7617H235.101V54.1553C235.102 54.5839 235.016 55.0084 234.848 55.4045C234.681 55.8007 234.434 56.1607 234.124 56.464C233.813 56.7672 233.445 57.0078 233.038 57.172C232.632 57.3362 232.197 57.4207 231.758 57.4207Z" fill="#263238" stroke="#263238" stroke-linecap="round" stroke-linejoin="round"/>
<path d="M214.936 44.4625C214.661 44.1277 214.456 43.7432 214.334 43.3311C214.212 42.9191 214.175 42.4876 214.224 42.0614C214.274 41.6352 214.409 41.2228 214.623 40.8479C214.837 40.4729 215.124 40.1428 215.469 39.8765L222.492 34.3754C223.188 33.8363 224.074 33.5883 224.957 33.6858C225.84 33.7833 226.647 34.2183 227.201 34.8953C227.753 35.5726 228.008 36.436 227.908 37.2959C227.808 38.1558 227.362 38.9419 226.668 39.4813L219.639 44.9773C219.296 45.245 218.902 45.444 218.479 45.563C218.057 45.6821 217.615 45.7187 217.178 45.6709C216.741 45.6231 216.318 45.4918 215.933 45.2844C215.549 45.0771 215.209 44.7978 214.936 44.4625Z" fill="white" stroke="#263238" stroke-linecap="round" stroke-linejoin="round"/>
<path d="M214.936 44.4625C214.661 44.1277 214.456 43.7433 214.334 43.3312C214.212 42.9191 214.175 42.4876 214.224 42.0615C214.274 41.6353 214.409 41.2229 214.623 40.8479C214.837 40.4729 215.124 40.1428 215.469 39.8765L218.983 37.126L223.169 42.2163L219.655 44.9617C219.312 45.2327 218.918 45.4348 218.495 45.5565C218.071 45.6781 217.627 45.7169 217.189 45.6705C216.75 45.624 216.325 45.4934 215.938 45.2861C215.552 45.0788 215.211 44.7989 214.936 44.4625Z" fill="#263238" stroke="#263238" stroke-linecap="round" stroke-linejoin="round"/>
<path d="M181.493 20.5248C181.076 20.5249 180.67 20.6522 180.331 20.8887L172.561 15.008C172.942 14.3209 173.12 13.5444 173.077 12.7645C173.034 11.9846 172.77 11.2315 172.316 10.5884L177.062 4.67132C177.463 4.82233 177.904 4.84401 178.319 4.73317C178.734 4.62233 179.102 4.38479 179.369 4.05535C179.636 3.7259 179.787 3.32184 179.802 2.90234C179.816 2.48283 179.692 2.06991 179.448 1.72403C179.204 1.37815 178.853 1.11748 178.446 0.980186C178.039 0.842893 177.598 0.836187 177.187 0.96105C176.776 1.08591 176.417 1.33579 176.162 1.67409C175.907 2.01239 175.77 2.42134 175.771 2.84107C175.769 3.24559 175.898 3.6405 176.139 3.96938L171.521 9.73568C170.902 9.22723 170.149 8.89708 169.348 8.78228C168.547 8.66747 167.729 8.77254 166.986 9.08571C166.243 9.39888 165.604 9.90776 165.141 10.5552C164.678 11.2027 164.409 11.9632 164.364 12.7514H158.968C158.909 12.2844 158.68 11.8534 158.323 11.5369C157.965 11.2204 157.504 11.0394 157.021 11.0267C156.539 11.0141 156.068 11.1706 155.693 11.4679C155.319 11.7652 155.067 12.1835 154.982 12.6469C154.898 13.1102 154.986 13.5877 155.232 13.9927C155.478 14.3976 155.865 14.7031 156.322 14.8536C156.78 15.0041 157.277 14.9897 157.724 14.8129C158.172 14.6361 158.539 14.3086 158.76 13.8901H164.466C164.633 14.6461 165.008 15.3435 165.551 15.9071C166.094 16.4707 166.784 16.8793 167.548 17.089C168.311 17.2986 169.119 17.3013 169.884 17.0968C170.649 16.8923 171.342 16.4883 171.889 15.9284L179.616 21.7882C179.464 22.1791 179.443 22.6073 179.558 23.0101C179.673 23.413 179.917 23.7695 180.255 24.0275C180.592 24.2856 181.005 24.4316 181.434 24.4443C181.863 24.457 182.284 24.3357 182.637 24.0982C182.99 23.8606 183.256 23.5192 183.396 23.1239C183.536 22.7285 183.542 22.3 183.414 21.9008C183.287 21.5016 183.031 21.1528 182.686 20.9052C182.34 20.6576 181.922 20.5243 181.493 20.5248Z" fill="#263238"/>
<path d="M23.6636 57.4841C23.0177 57.4827 22.3987 57.2319 21.9419 56.7866C21.4852 56.3413 21.228 55.7377 21.2266 55.1079V35.3496H26.1007V55.1079C26.1007 55.7381 25.8439 56.3425 25.3869 56.7881C24.9299 57.2338 24.31 57.4841 23.6636 57.4841Z" fill="white" stroke="#263238" stroke-linecap="round" stroke-linejoin="round"/>
<path d="M23.6636 57.4826C23.0177 57.4813 22.3987 57.2305 21.9419 56.7851C21.4852 56.3398 21.228 55.7362 21.2266 55.1064V42.9551H26.1007V55.1064C26.1007 55.7366 25.8439 56.341 25.3869 56.7867C24.9299 57.2323 24.31 57.4826 23.6636 57.4826Z" fill="#263238" stroke="#263238" stroke-linecap="round" stroke-linejoin="round"/>
<path d="M26.7972 34.1953H20.5312V35.9268H26.7972V34.1953Z" fill="white" stroke="#263238" stroke-linecap="round" stroke-linejoin="round"/>
<path d="M16.275 57.4841C15.629 57.4827 15.01 57.2319 14.5532 56.7866C14.0965 56.3413 13.8393 55.7377 13.8379 55.1079V35.3496H18.712V55.1079C18.712 55.7381 18.4553 56.3425 17.9982 56.7881C17.5412 57.2338 16.9213 57.4841 16.275 57.4841Z" fill="white" stroke="#263238" stroke-linecap="round" stroke-linejoin="round"/>
<path d="M16.275 57.4826C15.629 57.4813 15.01 57.2305 14.5532 56.7851C14.0965 56.3398 13.8393 55.7362 13.8379 55.1064V42.9551H18.712V55.1064C18.712 55.7366 18.4553 56.341 17.9982 56.7867C17.5412 57.2323 16.9213 57.4826 16.275 57.4826Z" fill="#263238" stroke="#263238" stroke-linecap="round" stroke-linejoin="round"/>
<path d="M19.4105 34.1953H13.1445V35.9268H19.4105V34.1953Z" fill="white" stroke="#263238" stroke-linecap="round" stroke-linejoin="round"/>
<path d="M86.5855 14.7167L88.5266 10.1723C88.5596 10.0991 88.6143 10.0372 88.6837 9.99455C88.7531 9.95192 88.834 9.93052 88.9159 9.93312C88.9981 9.93711 89.077 9.96571 89.1419 10.015C89.2068 10.0643 89.2545 10.132 89.2786 10.2087L91.6303 17.7688L93.4221 12.2001C93.4467 12.1218 93.4961 12.053 93.5631 12.0035C93.6301 11.954 93.7114 11.9264 93.7954 11.9245C93.8784 11.9267 93.9589 11.9525 94.0271 11.9987C94.0953 12.0449 94.1482 12.1095 94.1794 12.1845L95.1766 14.9819H100.568C101.671 13.8576 102.313 12.3773 102.37 10.8222C102.381 9.36971 101.84 7.96468 100.853 6.87702C99.8653 5.78936 98.5005 5.09575 97.0205 4.9294C95.5406 4.76305 94.0497 5.13568 92.8344 5.97574C91.619 6.8158 90.7648 8.06405 90.4358 9.48076C90.097 8.07398 89.2397 6.83768 88.027 6.007C86.8143 5.17631 85.3307 4.80919 83.8585 4.97546C82.3863 5.14173 81.0281 5.82979 80.0423 6.90878C79.0564 7.98776 78.5117 9.3824 78.5117 10.8274C78.571 12.2676 79.125 13.6465 80.0849 14.7427L86.5855 14.7167Z" fill="#263238"/>
<path d="M94.8943 15.7633C94.8113 15.7636 94.7303 15.7387 94.6624 15.6921C94.5946 15.6456 94.5433 15.5796 94.5156 15.5033L93.8224 13.5587L92.0039 19.2106C91.978 19.2902 91.9269 19.3597 91.8579 19.4092C91.7889 19.4587 91.7056 19.4857 91.62 19.4861C91.5341 19.4859 91.4507 19.4583 91.3824 19.4076C91.314 19.357 91.2645 19.286 91.2413 19.2054L88.8363 11.4736L87.2364 15.2589C87.206 15.3296 87.1549 15.39 87.0894 15.4326C87.024 15.4751 86.9471 15.4979 86.8685 15.4981H80.7305C82.0477 16.9332 83.6901 18.2019 84.9167 19.3822C86.7725 21.1708 88.5909 23.0218 90.4841 24.7481C92.9105 22.4135 95.3529 20.0685 97.758 17.7339C98.4245 17.084 99.1498 16.4392 99.8217 15.7633H94.8943Z" fill="#263238"/>
<path d="M4.93983 131.979L7.55469 132.863L10.3841 124.91L7.76921 124.026L4.93983 131.979Z" fill="white" stroke="#263238" stroke-miterlimit="10"/>
<path d="M3.70068 133.242L7.73633 134.606L8.26935 133.108L4.2337 131.743L3.70068 133.242Z" fill="white" stroke="#263238" stroke-miterlimit="10"/>
<path d="M4.88747 126.074L11.3516 128.26L16.4773 113.852L10.0132 111.665L4.88747 126.074Z" fill="white" stroke="#263238" stroke-miterlimit="10"/>
<path d="M8.02759 119.91L12.7988 121.523L15.6282 113.57L10.857 111.957L8.02759 119.91Z" fill="#263238" stroke="#263238" stroke-miterlimit="10"/>
<path d="M7.18397 125.673L9.79883 126.558L12.6282 118.604L10.0134 117.72L7.18397 125.673Z" fill="#263238" stroke="#263238" stroke-miterlimit="10"/>
<path d="M4.42835 125.921L11.8145 128.419L12.4558 126.616L5.06973 124.118L4.42835 125.921Z" fill="white" stroke="#263238" stroke-miterlimit="10"/>
<path d="M11.5863 111.366L15.4355 112.668L16.2901 110.266L12.4409 108.964L11.5863 111.366Z" fill="white" stroke="#263238" stroke-miterlimit="10"/>
<path d="M9.39125 111.963L16.7773 114.461L17.4187 112.658L10.0326 110.16L9.39125 111.963Z" fill="white" stroke="#263238" stroke-miterlimit="10"/>
<path d="M14.4062 109.286L17.4992 100.582" stroke="#263238" stroke-miterlimit="10"/>
<path d="M186.379 217.461C201.791 217.461 214.285 214.714 214.285 211.326C214.285 207.937 201.791 205.19 186.379 205.19C170.967 205.19 158.473 207.937 158.473 211.326C158.473 214.714 170.967 217.461 186.379 217.461Z" fill="#263238" stroke="#263238" stroke-linecap="round" stroke-linejoin="round"/>
<path d="M164.859 72.6426C164.859 72.6426 161.084 74.894 161.126 75.8819C161.169 76.8698 159.718 94.8863 159.553 97.1377C159.388 99.3891 157.191 104.037 157.02 106.149C156.849 108.26 157.393 110.376 158.028 111.348C158.662 112.32 160.993 115.43 160.993 115.43L167.259 105.993C167.413 103.932 167.445 101.864 167.355 99.7999C167.259 95.3022 164.859 72.6426 164.859 72.6426Z" fill="white" stroke="#263238" stroke-linecap="round" stroke-linejoin="round"/>
<path d="M188.969 28.0006C188.969 28.0006 182.303 27.5846 178.506 32.0926C174.709 36.6006 175.525 43.4952 175.498 45.6115C175.472 47.7277 169.024 53.9307 169.739 56.4577C170.454 58.9847 172.352 59.2707 171.744 61.3817C171.136 63.4927 167.169 64.7614 167.744 67.4392C168.32 70.117 170.411 73.9126 170.411 73.9126L208.807 74.1674C208.807 74.1674 210.177 70.2261 208.716 67.2676C207.255 64.3091 205.18 63.3315 205.516 61.9225C205.852 60.5134 207.708 57.1337 206.994 54.6015C206.279 52.0693 203.794 51.3674 203.533 46.8593C203.271 42.3513 202.589 34.9004 198.92 31.2607C195.251 27.621 188.969 28.0006 188.969 28.0006Z" fill="#263238" stroke="#263238" stroke-linecap="round" stroke-linejoin="round"/>
<path d="M177.16 201.723C175.981 203.938 174.55 206.017 172.894 207.921C170.441 210.598 168.063 212.008 168.143 213.417C168.223 214.826 173.577 215.101 176.408 214.113C179.24 213.125 181.299 211.155 181.869 210.994C182.44 210.832 184.034 210.994 184.072 209.018C184.109 207.042 183.8 201.416 183.8 201.416L177.16 201.723Z" fill="white" stroke="#263238" stroke-linecap="round" stroke-linejoin="round"/>
<path d="M176.401 214.113C179.238 213.125 181.291 211.154 181.862 210.993C182.432 210.832 184.027 210.993 184.064 209.017C184.064 207.977 184.006 205.897 183.931 204.197C183.511 204.964 182.89 205.609 182.131 206.066C181.373 206.523 180.503 206.775 179.611 206.797C179.611 206.797 179.558 205.809 178.012 204.124C177.014 203.022 176.006 203.89 175.42 204.644L174.945 205.341L174.908 205.409C174.292 206.294 173.619 207.14 172.892 207.941C170.439 210.619 168.061 212.028 168.141 213.437C168.221 214.846 173.569 215.101 176.401 214.113Z" fill="white" stroke="#263238" stroke-linecap="round" stroke-linejoin="round"/>
<path d="M196.918 201.713C198.351 203.936 200.013 206.011 201.878 207.906C204.624 210.578 207.157 211.982 207.21 213.391C207.264 214.8 201.963 215.081 199.019 214.098C196.076 213.116 193.804 211.145 193.223 211.005C192.641 210.864 191.052 211.005 190.802 209.039C190.551 207.074 190.236 201.438 190.236 201.438L196.918 201.713Z" fill="white" stroke="#263238" stroke-linecap="round" stroke-linejoin="round"/>
<path d="M199.04 214.097C196.102 213.114 193.825 211.144 193.243 211.003C192.662 210.863 191.073 211.003 190.822 209.038C190.689 207.998 190.54 205.918 190.428 204.213C190.921 204.975 191.598 205.608 192.401 206.056C193.203 206.504 194.106 206.753 195.03 206.781C195.03 206.781 194.977 205.793 196.326 204.104C197.206 203.006 198.31 203.87 198.992 204.624C199.168 204.852 199.349 205.081 199.525 205.32L199.573 205.388C200.29 206.272 201.056 207.117 201.867 207.92C204.613 210.593 207.146 211.997 207.199 213.406C207.253 214.815 201.984 215.08 199.04 214.097Z" fill="white" stroke="#263238" stroke-linecap="round" stroke-linejoin="round"/>
<path d="M165.564 127.407C165.564 127.407 166.455 156.685 167.639 162.457C168.823 168.228 174.108 201.308 174.108 201.308C175.723 201.974 177.462 202.307 179.216 202.285H184.992L185.525 177.65L185.722 141.893L188.618 202.421C188.618 202.421 196.574 202.696 197.433 202.556C198.292 202.415 199.006 202.275 199.006 202.275L204.12 163.98L207.048 138.502L207.208 128.369C207.208 128.369 182.763 127.542 175.659 126.98C168.556 126.419 165.634 126.278 165.634 126.278L165.564 127.407Z" fill="#3891CA" stroke="#263238" stroke-linecap="round" stroke-linejoin="round"/>
<path d="M198.572 179.1C198.508 179.588 198.444 180.041 198.369 180.457" stroke="#263238" stroke-linecap="round" stroke-linejoin="round"/>
<path d="M199.227 143.852C199.227 143.852 199.723 164.712 198.854 176.037" stroke="#263238" stroke-linecap="round" stroke-linejoin="round"/>
<path d="M173.018 142.176C173.018 142.176 173.631 155.975 174.239 159.069" stroke="#263238" stroke-linecap="round" stroke-linejoin="round"/>
<path d="M195.803 133.385V143.919C197.187 144.282 198.603 144.521 200.032 144.631C202.223 144.772 206.314 144.631 206.314 144.631L206.607 140.643L195.803 133.385Z" fill="#263238" stroke="#263238" stroke-linecap="round" stroke-linejoin="round"/>
<path d="M166.018 141.496C166.018 141.496 171.569 143.207 173.905 143.348C176.241 143.488 178.427 143.774 178.427 143.774L178.139 140.93L165.725 139.791L166.018 141.496Z" fill="#263238" stroke="#263238" stroke-linecap="round" stroke-linejoin="round"/>
<path d="M182.869 61.5117L178.512 66.3005L166.428 74.8954L169.003 126.99C169.003 126.99 178.634 129.517 186.9 130.219C195.166 130.921 205.794 129.075 205.794 129.075L204.232 74.4794C204.232 74.4794 199.528 67.72 197.118 65.8949C194.707 64.0699 193.603 62.38 190.409 62.0993C187.215 61.8185 182.869 61.5117 182.869 61.5117Z" fill="#3891CA" stroke="#263238" stroke-linecap="round" stroke-linejoin="round"/>
<path d="M177.812 64.0762L164.859 72.671L166.89 104.342L166.203 107.524L160.758 113.638L163.078 124.381L162.043 139.537C162.043 139.537 167.189 141.227 170.677 141.643C173.274 141.914 175.883 142.055 178.495 142.064L178.943 121.37C178.943 121.37 180.665 87.0166 180.868 85.4931C181.07 83.9697 182.867 61.5752 182.867 61.5752L177.812 64.0762Z" fill="white" stroke="#263238" stroke-linecap="round" stroke-linejoin="round"/>
<path d="M178.021 65.3691L171.75 80.7026L178.517 83.4428L172.129 84.5763L177.787 106.191" stroke="#263238" stroke-linecap="round" stroke-linejoin="round"/>
<path d="M181.781 57.4316C181.781 57.4316 184.032 72.0684 185.802 75.4481C187.573 78.8278 188.074 79.9509 188.074 79.9509C188.074 79.9509 191.924 68.5431 192.697 66.8532C193.471 65.1634 194.297 59.1111 194.297 59.1111C194.297 59.1111 186.623 61.5081 181.781 57.4316Z" fill="white" stroke="#263238" stroke-linecap="round" stroke-linejoin="round"/>
<path d="M181.781 57.4316C181.781 57.4316 181.984 58.7627 182.315 60.7126C183.44 61.5497 186.421 63.6191 188.623 63.7283C190.303 63.8115 192.436 62.7508 193.855 61.9033C194.111 60.3694 194.287 59.1111 194.287 59.1111C194.287 59.1111 186.623 61.5081 181.781 57.4316Z" fill="#263238" stroke="#263238" stroke-linecap="round" stroke-linejoin="round"/>
<path d="M178.722 47.3127C178.722 47.3127 177.186 45.1809 176.152 47.3127C175.117 49.4445 177.751 52.6007 178.487 53.0322C180.578 54.2437 180.023 51.9923 180.023 51.9923L178.722 47.3127Z" fill="white" stroke="#263238" stroke-linecap="round" stroke-linejoin="round"/>
<path d="M197.802 48.2327C197.802 48.2327 199.098 46.0281 200.367 48.1079C201.637 50.1878 199.349 53.4583 198.666 53.921C196.714 55.2365 197.024 52.9799 197.024 52.9799L197.802 48.2327Z" fill="white" stroke="#263238" stroke-linecap="round" stroke-linejoin="round"/>
<path d="M178.361 45.4289C178.361 45.4289 183.929 44.1603 186.734 42.5432C188.452 41.5314 189.95 40.2013 191.144 38.6279C191.144 38.6279 193.554 43.0683 195.677 44.8674C197.799 46.6664 198.242 46.7704 198.242 46.7704C198.242 46.7704 197.223 54.5438 196.071 57.2475C194.92 59.9513 191.16 62.5823 187.651 61.8231C185.657 61.3968 182.201 59.9929 181.198 57.6271C180.196 55.2613 178.361 45.4289 178.361 45.4289Z" fill="white" stroke="#263238" stroke-linecap="round" stroke-linejoin="round"/>
<path d="M192.566 51.4046C190.839 51.4462 185.053 51.4566 182.066 49.6991C180.869 49.0197 179.749 48.2197 178.723 47.3125C178.829 47.8325 178.957 48.4824 179.096 49.1583L179.747 49.6211L181.378 55.6318L180.616 55.793C180.777 56.4074 180.971 57.0131 181.197 57.6076C182.2 59.9734 185.655 61.3773 187.65 61.8037C191.153 62.5576 194.902 59.9422 196.065 57.2437C195.79 56.7194 195.709 56.119 195.835 55.5434C196.171 53.8431 196.587 50.8638 196.587 50.8638L197.777 49.8239C197.841 49.4443 197.894 49.0804 197.947 48.7476C196.507 49.7199 193.809 51.3734 192.566 51.4046Z" fill="#3891CA" stroke="#263238" stroke-linecap="round" stroke-linejoin="round"/>
<path d="M186.218 48.892C186.218 48.892 184.356 46.6873 181.914 46.8901" stroke="#263238" stroke-linecap="round" stroke-linejoin="round"/>
<path d="M191.01 49.3299C191.604 48.7211 192.341 48.2635 193.158 47.997C193.976 47.7305 194.847 47.6633 195.697 47.8012" stroke="#263238" stroke-linecap="round" stroke-linejoin="round"/>
<path d="M180.842 45.7883C180.842 45.7883 183.508 44.7483 185.871 45.2371" stroke="#263238" stroke-linecap="round" stroke-linejoin="round"/>
<path d="M191.229 45.8041C191.931 45.4542 192.727 45.3233 193.508 45.4294C194.289 45.5354 195.018 45.8732 195.596 46.3969" stroke="#263238" stroke-linecap="round" stroke-linejoin="round"/>
<path d="M184.426 48.1698C184.438 48.2497 184.434 48.3311 184.414 48.4094C184.393 48.4877 184.357 48.5614 184.308 48.6261C184.258 48.6909 184.196 48.7454 184.125 48.7867C184.054 48.8279 183.975 48.855 183.893 48.8665C183.726 48.8482 183.573 48.7687 183.464 48.6441C183.355 48.5196 183.298 48.3593 183.306 48.1958C183.293 48.1158 183.297 48.0341 183.317 47.9555C183.337 47.8769 183.373 47.803 183.423 47.7381C183.472 47.6732 183.535 47.6186 183.606 47.5776C183.678 47.5365 183.757 47.5098 183.84 47.499C184.006 47.5185 184.159 47.5983 184.267 47.7226C184.376 47.8469 184.433 48.0066 184.426 48.1698Z" fill="#263238"/>
<path d="M194.082 48.8443C194.096 48.9244 194.094 49.0066 194.075 49.0858C194.055 49.165 194.019 49.2395 193.969 49.3047C193.92 49.3699 193.857 49.4245 193.784 49.4652C193.712 49.5058 193.632 49.5316 193.549 49.541C193.382 49.5239 193.229 49.4455 193.12 49.3218C193.011 49.1981 192.955 49.0384 192.962 48.8755C192.948 48.7953 192.95 48.7131 192.97 48.6339C192.989 48.5547 193.025 48.4803 193.075 48.415C193.125 48.3498 193.188 48.2952 193.26 48.2546C193.333 48.2139 193.413 48.1881 193.496 48.1787C193.662 48.1958 193.815 48.2742 193.924 48.3979C194.033 48.5216 194.09 48.6813 194.082 48.8443Z" fill="#263238"/>
<path d="M208.443 69.6592C208.443 69.6592 211.552 71.0631 212.71 73.2989C213.867 75.5347 223.119 99.7594 223.076 101.59C223.034 103.42 219.973 105.531 217.104 105.817C214.235 106.103 210.054 101.033 209.43 100.191C208.806 99.3486 208.694 89.4903 208.694 89.4903L208.443 69.6592Z" fill="white" stroke="#263238" stroke-linecap="round" stroke-linejoin="round"/>
<path d="M193.789 63.1914L195.304 111.62L195.837 142.167C198.741 142.864 201.715 143.239 204.705 143.285C207.199 143.336 209.678 142.905 212 142.017C212 142.017 211.094 123.012 210.934 119.913C210.774 116.814 209.718 110.903 209.718 110.903L208.459 69.6597C208.459 69.6597 196.743 64.3145 193.789 63.1914Z" fill="white" stroke="#263238" stroke-linecap="round" stroke-linejoin="round"/>
<path d="M197.118 65.8633L202.488 82.9438L197.593 84.2385L202.355 86.4899L196.414 104.891" fill="white"/>
<path d="M197.118 65.8633L202.488 82.9438L197.593 84.2385L202.355 86.4899L196.414 104.891" stroke="#263238" stroke-linecap="round" stroke-linejoin="round"/>
<path d="M200.86 81.4863L194.199 112.6C194.199 112.6 198.753 114.004 202.081 114.16C205.409 114.316 212.341 114.296 212.341 114.296L219.274 85.2924C219.274 85.2924 205.627 84.0185 200.86 81.4863Z" fill="#263238" stroke="#263238" stroke-linecap="round" stroke-linejoin="round"/>
<path d="M203.182 110.486L203.4 100.763L208.685 101.849C208.685 101.849 205.192 109.352 203.182 110.486Z" fill="white" stroke="#263238" stroke-linecap="round" stroke-linejoin="round"/>
<path d="M207.228 97.2491C207.228 97.2491 205.82 95.2836 205.367 94.8573C204.914 94.4309 202.674 93.1726 202.242 93.1726C201.81 93.1726 199.49 93.0322 199.042 93.0322C198.594 93.0322 198.088 94.0201 198.546 94.4413C199.005 94.8625 200.599 95.0029 200.599 95.0029L201.693 96.5627L196.76 96.1416C196.76 96.1416 195.939 96.9891 196.125 97.7014C196.265 98.184 196.443 98.6552 196.659 99.1105C196.64 100.144 196.695 101.178 196.824 102.204C197.016 103.052 197.89 103.333 199.09 104.034C200.29 104.736 204.306 104.315 204.306 104.315H206.162L207.228 97.2491Z" fill="white" stroke="#263238" stroke-linecap="round" stroke-linejoin="round"/>
<path d="M219.255 98.2254L206.456 96.5459C206.456 96.5459 205.459 104.574 204.451 107.247C203.443 109.919 203.182 110.486 203.182 110.486C203.182 110.486 216.594 110.195 219.756 109.914C222.918 109.633 224.694 107.798 224.555 105.266C224.417 102.733 222.833 100.196 222.833 100.196" fill="white"/>
<path d="M219.255 98.2254L206.456 96.5459C206.456 96.5459 205.459 104.574 204.451 107.247C203.443 109.919 203.182 110.486 203.182 110.486C203.182 110.486 216.594 110.195 219.756 109.914C222.918 109.633 224.694 107.798 224.555 105.266C224.417 102.733 222.833 100.196 222.833 100.196" stroke="#263238" stroke-linecap="round" stroke-linejoin="round"/>
<path d="M165.885 106.99C165.885 106.99 168.871 108.815 169.618 109.382C170.364 109.949 170.428 113.604 170.903 114.306C171.377 115.008 170.817 115.434 169.954 115.434C169.09 115.434 167.783 112.762 167.783 112.762L167.73 111.774L161.629 113.75L160.029 111.077C160.029 111.077 161.842 106.99 165.885 106.99Z" fill="white" stroke="#263238" stroke-linecap="round" stroke-linejoin="round"/>
<path d="M121.438 217.463C136.85 217.463 149.344 214.716 149.344 211.328C149.344 207.939 136.85 205.192 121.438 205.192C106.025 205.192 93.5312 207.939 93.5312 211.328C93.5312 214.716 106.025 217.463 121.438 217.463Z" fill="#263238" stroke="#263238" stroke-linecap="round" stroke-linejoin="round"/>
<path d="M143.229 65.5273C143.229 65.5273 146.887 83.4294 147.537 86.7415C148.188 90.0536 149.383 97.9258 150.737 101.378C152.092 104.831 151.649 109.25 150.972 110.493C150.292 111.573 149.512 112.59 148.641 113.53L144.098 107.753C144.098 107.753 141.394 79.4466 141.293 75.4377C141.191 71.4288 143.229 65.5273 143.229 65.5273Z" fill="white" stroke="#263238" stroke-linecap="round" stroke-linejoin="round"/>
<path d="M145.643 107.044C145.643 107.044 148.522 108.796 149.029 109.54C149.536 110.283 149.898 111.23 149.504 112.036C149.109 112.841 146.96 115.275 146.416 115.748C145.872 116.221 145.413 114.334 145.349 112.711C145.285 111.089 145.643 107.044 145.643 107.044Z" fill="white" stroke="#263238" stroke-linecap="round" stroke-linejoin="round"/>
<path d="M130.157 205.212C130.157 205.212 139.186 209.492 139.756 210.324C140.327 211.155 138.268 212.263 132.888 212.263C127.507 212.263 127.347 211.571 125.208 211.02C123.07 210.469 118.809 210.88 118.233 209.637C117.657 208.394 118.66 204.115 118.66 204.115L130.157 205.212Z" fill="white" stroke="#263238" stroke-linecap="round" stroke-linejoin="round"/>
<path d="M118.169 207.424C118.169 207.424 125.634 211.843 124.978 213.362C124.323 214.88 118.926 214.88 116.083 214.464C113.241 214.048 107.199 210.304 106.879 208.942C106.559 207.58 107.359 205.49 111.737 205.079C116.115 204.668 118.169 207.424 118.169 207.424Z" fill="white" stroke="#263238" stroke-linecap="round" stroke-linejoin="round"/>
<path d="M140.832 135.205C140.832 135.205 136.566 167.24 135.824 171.935C135.083 176.63 132.731 184.086 131.462 189.749C130.743 193.079 130.209 196.444 129.862 199.831C129.733 200.794 129.756 201.771 129.932 202.727C130.113 204.11 130.14 205.212 130.14 205.212C128.241 205.677 126.308 206 124.359 206.179C121.954 206.32 118.695 206.32 118.695 206.32L117.629 197.345C117.629 197.345 118.423 184.086 118.893 180.223C119.362 176.36 119.863 145.979 119.842 145.147C119.821 144.315 119.634 136.999 119.634 136.999L134.166 135.481C134.166 135.481 136.15 129.959 139.131 130.235C142.112 130.51 140.832 135.205 140.832 135.205Z" fill="white" stroke="#263238" stroke-linecap="round" stroke-linejoin="round"/>
<path d="M139.153 130.235C136.172 129.959 134.188 135.481 134.188 135.481L119.641 136.999C119.641 136.999 119.689 138.944 119.737 140.94C121.288 141.076 122.723 141.154 123.949 141.154C128.61 141.146 133.268 140.891 137.9 140.389L138.524 134.025L139.5 140.509L140.172 140.296C140.588 137.207 140.854 135.195 140.854 135.195C140.854 135.195 142.134 130.51 139.153 130.235Z" fill="#263238" stroke="#263238" stroke-linecap="round" stroke-linejoin="round"/>
<path d="M104.465 136.172C104.465 136.172 104.465 136.369 104.497 136.728C104.694 140.503 105.867 162.378 106.225 166.412C106.625 170.832 104.625 175.662 104.726 179.666C104.827 183.67 105.793 205.352 105.793 205.352L106.859 208.94C106.859 208.94 109.366 207.286 111.771 207.286C114.176 207.286 118.17 207.421 118.17 207.421C118.17 207.421 118.378 204.52 118.357 203.558C118.335 202.596 118.245 199.138 118.245 199.138C118.245 199.138 122.314 181.049 122.559 179.531C122.804 178.013 125.961 151.776 125.94 150.933C125.919 150.091 126.606 138.366 126.606 138.366L104.465 136.172Z" fill="white" stroke="#263238" stroke-linecap="round" stroke-linejoin="round"/>
<path d="M126.457 141.127C126.548 139.526 126.612 138.382 126.612 138.382L104.465 136.172C104.465 136.172 104.465 136.369 104.497 136.728C104.497 137.186 104.556 137.909 104.609 138.808C109.787 139.713 118.773 141.137 123.951 141.137C124.804 141.153 125.636 141.143 126.457 141.127Z" fill="#263238" stroke="#263238" stroke-linecap="round" stroke-linejoin="round"/>
<path d="M120.781 51.3881C120.781 51.3881 118.44 51.7729 117.55 52.792C116.657 53.7833 115.854 54.8479 115.15 55.9741C115.027 56.3589 101.258 64.5066 101.258 64.5066L102.25 103.358C102.25 103.358 102.661 109.342 101.93 111.381C100.696 115.388 100.097 119.556 100.154 123.74C100.282 128.705 100.613 136.739 100.613 136.739C100.613 136.739 116.371 139.796 123.949 139.796C128.61 139.785 133.267 139.527 137.899 139.021L138.523 132.652L139.473 139.151L142.71 138.111L145.376 118.873C145.376 118.873 147.232 114.797 147.21 113.902C147.189 113.008 147.68 111.864 147.141 111.1C146.602 110.335 145.643 108.807 145.643 108.807C145.643 108.807 143.232 66.6748 143.232 65.5257C143.232 64.3766 136.102 57.6328 135.574 57.378C135.046 57.1232 131.793 52.4072 127.575 51.1385C123.357 49.8698 120.781 51.3881 120.781 51.3881Z" fill="white" stroke="#263238" stroke-linecap="round" stroke-linejoin="round"/>
<path d="M116.489 57.249L114.91 71.241L121.395 74.1788L119.774 78.926L135.991 106.712" stroke="#263238" stroke-linecap="round" stroke-linejoin="round"/>
<path d="M134.604 58.8184L139.467 69.8882L137.382 72.5972L140.859 77.3392L139.467 107.84" stroke="#263238" stroke-linecap="round" stroke-linejoin="round"/>
<path d="M120.18 53.3037C120.298 56.0334 120.806 58.7337 121.689 61.3266C123.091 65.1483 132.386 91.5152 132.386 91.5152L138.396 112.147C138.396 112.147 137.602 91.1305 137.58 90.2414C137.559 89.3522 133.026 60.1775 133.026 60.1775C133.026 60.1775 132.253 55.4667 131.032 53.6833C129.811 51.8998 121.625 48.5877 120.18 53.3037Z" fill="#3891CA" stroke="#263238" stroke-linecap="round" stroke-linejoin="round"/>
<path d="M119.607 51.2646C119.607 51.2646 115.826 51.6442 116.493 57.2493C117.159 62.8545 118.039 66.6761 118.039 66.6761" stroke="#263238" stroke-width="2" stroke-linecap="round" stroke-linejoin="round"/>
<path d="M117.572 74.0664C117.572 74.0664 119.172 80.5606 120.265 82.3441C121.359 84.1275 124.665 85.911 127.017 85.911" stroke="#263238" stroke-linecap="round" stroke-linejoin="round"/>
<path d="M122.629 72.5371C122.629 72.5371 124.389 80.0505 124.682 81.4543C124.975 82.8582 124.005 85.5256 122.373 88.2138" stroke="#263238" stroke-linecap="round" stroke-linejoin="round"/>
<path d="M121.903 89.1011C121.735 89.011 121.611 88.8599 121.557 88.6806C121.503 88.5014 121.524 88.3086 121.615 88.1444L121.802 87.8116C121.848 87.7321 121.909 87.6623 121.983 87.6063C122.057 87.5503 122.142 87.5092 122.232 87.4855C122.323 87.4618 122.417 87.4559 122.51 87.4681C122.602 87.4804 122.692 87.5105 122.772 87.5568C122.94 87.647 123.065 87.7977 123.12 87.9767C123.175 88.1556 123.155 88.3484 123.066 88.5135L122.879 88.8411C122.833 88.9212 122.771 88.9916 122.697 89.0482C122.623 89.1048 122.538 89.1464 122.447 89.1706C122.356 89.1948 122.261 89.2011 122.168 89.1892C122.074 89.1772 121.984 89.1473 121.903 89.1011Z" fill="#263238"/>
<path d="M127.89 86.0481C127.89 86.1398 127.871 86.2305 127.834 86.3149C127.797 86.3993 127.743 86.4756 127.676 86.5392C127.608 86.6028 127.528 86.6524 127.44 86.6851C127.352 86.7177 127.258 86.7328 127.164 86.7293H126.775C126.583 86.7252 126.401 86.6476 126.267 86.5133C126.133 86.3791 126.059 86.1989 126.061 86.0117C126.06 85.9203 126.078 85.8296 126.114 85.7453C126.15 85.6609 126.204 85.5846 126.271 85.5209C126.338 85.4572 126.418 85.4075 126.506 85.3748C126.593 85.3421 126.687 85.3271 126.78 85.3306H127.17C127.362 85.336 127.544 85.4138 127.678 85.5476C127.813 85.6815 127.888 85.8609 127.89 86.0481Z" fill="#263238"/>
<path d="M117.58 74.5742L116.684 69.0367C116.584 68.4657 116.711 67.8791 117.038 67.3961C117.366 66.9131 117.871 66.5701 118.449 66.4369C119.072 66.2988 119.725 66.4014 120.272 66.7234C120.819 67.0453 121.217 67.5613 121.382 68.1632L122.912 73.6747" stroke="#263238" stroke-width="2" stroke-linecap="round" stroke-linejoin="round"/>
<path d="M138.66 78.3168C139.943 78.1914 140.864 76.9201 140.715 75.4771C140.567 74.0341 139.407 72.966 138.123 73.0914C136.839 73.2167 135.919 74.4881 136.067 75.9311C136.215 77.374 137.376 78.4421 138.66 78.3168Z" fill="white" stroke="#263238" stroke-linecap="round" stroke-linejoin="round"/>
<path d="M132.105 53.5996C132.105 53.5996 137.241 60.645 138.878 75.0062" stroke="#263238" stroke-width="2" stroke-linecap="round" stroke-linejoin="round"/>
<path d="M139.013 76.6684C139.714 76.6049 140.221 75.9067 140.145 75.109C140.069 74.3112 139.439 73.716 138.738 73.7795C138.037 73.843 137.53 74.5412 137.606 75.339C137.682 76.1367 138.312 76.7319 139.013 76.6684Z" fill="white" stroke="#263238" stroke-linecap="round" stroke-linejoin="round"/>
<path d="M146.517 108.142C146.202 109.093 145.944 110.062 145.744 111.043C145.744 111.459 145.643 112.702 144.645 112.421C143.648 112.14 143.947 107.174 144.075 106.623C144.203 106.072 146.629 107.856 146.629 107.856" fill="white"/>
<path d="M146.517 108.142C146.202 109.093 145.944 110.062 145.744 111.043C145.744 111.459 145.643 112.702 144.645 112.421C143.648 112.14 143.947 107.174 144.075 106.623C144.203 106.072 146.629 107.856 146.629 107.856" stroke="#263238" stroke-linecap="round" stroke-linejoin="round"/>
<path d="M114.148 103.743C115.035 104.219 116.026 104.481 117.038 104.507C118.606 104.507 121.47 103.988 122.52 104.253C123.571 104.518 126.253 107.814 126.253 107.814C126.253 107.814 127.053 108.579 126.675 108.964C126.296 109.348 125.523 110.003 124.989 109.598C124.456 109.192 121.79 107.05 121.79 107.05L115.065 109.728L112.303 108.324L114.148 103.743Z" fill="white" stroke="#263238" stroke-linecap="round" stroke-linejoin="round"/>
<path d="M103.85 63.6201C103.85 63.6201 99.4187 64.1401 98.6668 65.2736C97.9149 66.4071 85.7722 92.4049 85.7989 93.554C85.8255 94.7031 110.079 113.312 110.079 113.312L115.316 103.594L102.213 91.7497L107.898 78.886" fill="white"/>
<path d="M103.85 63.6201C103.85 63.6201 99.4187 64.1401 98.6668 65.2736C97.9149 66.4071 85.7722 92.4049 85.7989 93.554C85.8255 94.7031 110.079 113.312 110.079 113.312L115.316 103.594L102.213 91.7497L107.898 78.886" stroke="#263238" stroke-linecap="round" stroke-linejoin="round"/>
<path d="M112.025 118.008L124.835 118.262L124.771 110.494" stroke="#263238" stroke-linecap="round" stroke-linejoin="round"/>
<path d="M115.08 109.729L111.693 110.961" stroke="#263238" stroke-linecap="round" stroke-linejoin="round"/>
<path d="M118.943 45.7846C118.943 45.7846 120.399 56.8701 121.358 58.5235C122.318 60.177 129.144 66.8012 129.144 66.8012C129.144 66.8012 131.277 59.1631 131.517 57.3796C131.757 55.5962 131.944 48.4624 131.944 48.4624L118.916 44.8955L118.943 45.7846Z" fill="white" stroke="#263238" stroke-linecap="round" stroke-linejoin="round"/>
<path d="M118.943 45.7846C118.943 45.7846 119.113 47.0845 119.375 48.8576C120.396 49.7846 121.562 50.5465 122.83 51.1142C124.51 51.8369 128.99 52.2425 131.821 51.9201C131.896 50.0535 131.944 48.4624 131.944 48.4624L118.916 44.8955L118.943 45.7846Z" fill="#263238" stroke="#263238" stroke-linecap="round" stroke-linejoin="round"/>
<path d="M115.166 36.1088C115.166 36.1088 113.422 34.3253 112.558 36.3584C111.695 38.3914 113.625 41.4539 114.654 41.5839C115.265 41.6616 115.885 41.6173 116.478 41.4539C116.478 41.4539 117.209 44.3865 117.881 45.2756C119.203 46.906 120.898 48.2128 122.829 49.0921C125.208 50.132 133.17 50.5012 134.177 49.0921C135.185 47.683 135.127 40.1748 135.111 39.5405C135.095 38.9061 134.983 29.8277 134.983 29.8277C134.983 29.8277 135.697 26.6768 134.727 24.5086C133.756 22.3404 124.013 19.309 121.565 20.5621C119.118 21.8152 116.297 23.999 116.105 26.8016C115.913 29.6041 116.03 34.1902 116.03 34.1902L115.166 36.1088Z" fill="white" stroke="#263238" stroke-linecap="round" stroke-linejoin="round"/>
<path d="M129.565 32.1562C129.565 32.1562 131.191 39.4356 130.818 40.3091C130.445 41.1827 129.277 41.1983 127.815 40.4339C126.354 39.6696 127.117 38.6505 127.117 38.6505" stroke="#263238" stroke-linecap="round" stroke-linejoin="round"/>
<path d="M123.9 40.5635C123.9 40.5635 124.604 42.4717 125.911 42.6017C127.217 42.7317 130.497 42.9813 130.497 42.9813" stroke="#263238" stroke-linecap="round" stroke-linejoin="round"/>
<path d="M119.234 32.4097L119.442 35.4671C119.442 35.4671 120.637 36.1066 123.378 36.1066C126.119 36.1066 127.02 35.4671 127.02 35.4671L126.946 32.4097C126.946 32.4097 122.967 30.1167 119.234 32.4097Z" stroke="#263238" stroke-linecap="round" stroke-linejoin="round"/>
<path d="M129.576 32.4119L130.568 35.5993C130.568 35.5993 130.973 36.1192 133.72 36.1192C136.466 36.1192 137.367 35.4797 137.367 35.4797L137.287 32.4223C137.287 32.4223 133.304 30.1189 129.576 32.4119Z" stroke="#263238" stroke-linecap="round" stroke-linejoin="round"/>
<path d="M126.961 32.4102H129.574" stroke="#263238" stroke-linecap="round" stroke-linejoin="round"/>
<path d="M119.249 32.4102L114.098 35.3427" stroke="#263238" stroke-linecap="round" stroke-linejoin="round"/>
<path d="M120.521 30.8818C120.521 30.8818 121.919 29.3531 125.086 30.627" stroke="#263238" stroke-linecap="round" stroke-linejoin="round"/>
<path d="M130.055 30.8818C130.525 30.5138 131.093 30.2829 131.692 30.2157C132.291 30.1486 132.897 30.2479 133.441 30.5022" stroke="#263238" stroke-linecap="round" stroke-linejoin="round"/>
<path d="M123.859 33.8153C123.859 34.3769 123.651 34.8552 123.363 34.8552C123.075 34.8552 122.83 34.3977 122.83 33.8153C122.83 33.233 123.038 32.7754 123.331 32.7754C123.625 32.7754 123.849 33.2486 123.859 33.8153Z" fill="#263238"/>
<path d="M132.225 33.6854C132.225 34.247 132.017 34.7253 131.729 34.7253C131.441 34.7253 131.195 34.2678 131.195 33.6854C131.195 33.1031 131.403 32.6455 131.691 32.6455C131.979 32.6455 132.209 33.1239 132.225 33.6854Z" fill="#263238"/>
<path d="M123.274 21.9027C123.274 21.9027 124.532 24.6117 122.97 25.5996C122.488 25.8716 121.94 26.0149 121.383 26.0149C120.826 26.0149 120.279 25.8716 119.797 25.5996C120.212 26.159 120.444 26.828 120.462 27.5185C120.48 28.209 120.284 28.8886 119.898 29.468C119.132 30.7124 118.239 31.8778 117.232 32.9465C117.232 32.9465 117.514 36.2379 116.928 36.6226C116.341 37.0074 114.741 36.4302 114.715 35.4631C114.688 34.496 114.048 32.5618 114.021 31.5947C113.995 30.6275 113.536 28.111 113.536 28.111C113.536 28.111 109.526 26.3691 111.654 24.2425C113.781 22.1159 118.298 20.374 118.298 20.374C118.298 20.374 118.4 16.5055 121.146 15.346C123.892 14.1865 129.801 12.4447 129.849 14.3789C129.924 15.3744 129.741 16.3722 129.316 17.2803C129.316 17.2803 134.27 17.0879 137.726 20.4C141.181 23.7121 141.064 26.7851 139.277 26.7851C137.491 26.7851 136.91 27.1698 136.91 27.1698C136.91 27.1698 140.328 29.1041 138.568 30.0712C136.808 31.0383 134.995 29.8788 134.995 29.8788C134.995 29.8788 135.752 28.5269 133.523 26.7591C131.294 24.9912 123.274 21.9027 123.274 21.9027Z" fill="#263238" stroke="#263238" stroke-linecap="round" stroke-linejoin="round"/>
<path d="M55.6016 217.46C71.0138 217.46 83.5079 214.713 83.5079 211.325C83.5079 207.936 71.0138 205.189 55.6016 205.189C40.1894 205.189 27.6953 207.936 27.6953 211.325C27.6953 214.713 40.1894 217.46 55.6016 217.46Z" fill="#263238" stroke="#263238" stroke-linecap="round" stroke-linejoin="round"/>
<path d="M73.9785 84.4204V89.3911L81.391 92.7032C81.391 92.7032 82.1643 89.3911 81.5457 83.5156L73.9785 84.4204Z" fill="#999999" stroke="#263238" stroke-linecap="round" stroke-linejoin="round"/>
<path d="M37.1887 203.704C35.4921 205.124 33.8891 206.647 32.3893 208.264C30.2562 210.609 29.8402 212.944 31.824 214.062C33.8078 215.18 36.9221 214.888 40.3191 212.819C43.716 210.75 43.5774 209.918 45.5612 209.231C47.545 208.545 48.8195 207.152 48.8195 204.947C48.8195 202.742 41.5936 202.462 40.0364 202.347C38.4793 202.233 37.1887 203.704 37.1887 203.704Z" fill="white" stroke="#263238" stroke-linecap="round" stroke-linejoin="round"/>
<path d="M48.8052 204.946C48.8052 204.946 45.6055 206.329 44.0537 207.588C42.5019 208.846 39.4089 213.375 35.7933 213.375C33.952 213.376 32.1413 212.916 30.5352 212.038C30.5375 212.457 30.6576 212.867 30.8823 213.224C31.107 213.58 31.4278 213.87 31.8097 214.061C33.7935 215.163 36.9078 214.888 40.3048 212.818C43.7017 210.749 43.5631 209.917 45.5469 209.231C47.5307 208.544 48.8052 207.156 48.8052 204.946Z" stroke="#263238" stroke-linecap="round" stroke-linejoin="round"/>
<path d="M73.1268 203.704C74.8235 205.124 76.4265 206.647 77.9263 208.264C80.0594 210.609 80.4754 212.944 78.4916 214.062C76.5078 215.18 73.3935 214.888 69.9965 212.819C66.5995 210.75 66.7382 209.918 64.7544 209.231C62.7706 208.545 61.4961 207.152 61.4961 204.947C61.4961 202.742 68.722 202.462 70.2791 202.347C71.8363 202.233 73.1268 203.704 73.1268 203.704Z" fill="white" stroke="#263238" stroke-linecap="round" stroke-linejoin="round"/>
<path d="M61.5137 204.946C61.5137 204.946 64.7133 206.329 66.2652 207.588C67.817 208.846 70.91 213.375 74.5256 213.375C76.3668 213.376 78.1775 212.916 79.7837 212.038C79.7813 212.457 79.6613 212.867 79.4365 213.224C79.2118 213.58 78.8911 213.87 78.5092 214.061C76.5254 215.163 73.4111 214.888 70.0141 212.818C66.6171 210.749 66.7558 209.917 64.772 209.231C62.7882 208.544 61.5137 207.156 61.5137 204.946Z" stroke="#263238" stroke-linecap="round" stroke-linejoin="round"/>
<path d="M33.084 125.272C33.084 125.272 33.9319 156.34 34.3585 160.9C34.7851 165.46 36.0437 175.812 36.0437 176.384C36.0437 176.956 36.7476 199.86 36.7476 199.86L35.4731 201.94L35.8997 204.841L41.5631 205.944C44.3948 206.495 48.0797 207.327 48.645 206.775C49.2102 206.224 49.3542 205.117 49.6369 203.599C49.9195 202.08 50.4848 199.314 49.9195 197.109C49.3542 194.905 50.6288 171.424 50.7727 170.873C50.9167 170.321 54.175 147.641 54.175 147.641C54.175 147.641 56.3081 166.287 57.8546 171.944C59.4011 177.601 58.8465 186.029 59.4118 189.341C59.9771 192.653 61.1129 203.843 61.2569 204.67C61.4009 205.496 61.6782 206.749 61.6782 206.749C61.6782 206.749 68.7601 205.782 70.0346 205.226C71.3269 204.762 72.6531 204.393 74.0022 204.124C74.0022 204.124 74.4235 196.252 73.8582 193.075C73.4463 190.842 73.2092 188.583 73.149 186.315C73.149 185.348 73.8582 154.697 73.8582 154.697L73.149 125.007C73.149 125.007 54.031 126.942 46.6665 125.558C39.302 124.175 33.228 123.349 33.228 123.349L33.084 125.272Z" fill="#3891CA" stroke="#263238" stroke-linecap="round" stroke-linejoin="round"/>
<path d="M46.6772 125.548C39.3126 124.17 33.228 123.349 33.228 123.349L33.084 125.278C33.084 125.278 33.132 127.061 33.212 129.827C36.5876 130.748 43.4455 132.365 50.0741 132.365C57.0814 132.365 68.2428 130.285 73.2663 129.292L73.1596 125.002C73.1596 125.002 54.0417 126.931 46.6772 125.548Z" fill="#263238" stroke="#263238" stroke-linecap="round" stroke-linejoin="round"/>
<path d="M71.2754 195.514C71.366 196.465 71.4247 197.011 71.4247 197.011" stroke="#263238" stroke-linecap="round" stroke-linejoin="round"/>
<path d="M69.1035 132.562C69.1035 132.562 69.6368 159.247 69.6368 169.318C69.6368 176.286 70.5007 186.861 71.034 192.716" stroke="#263238" stroke-linecap="round" stroke-linejoin="round"/>
<path d="M40.4434 131.057L41.7339 160.008" stroke="#263238" stroke-linecap="round" stroke-linejoin="round"/>
<path d="M41.4707 162.267V167.05" stroke="#263238" stroke-linecap="round" stroke-linejoin="round"/>
<path d="M48.1885 52.3417C47.4912 52.3453 46.8049 52.5109 46.1863 52.8246C45.5678 53.1384 45.0348 53.5913 44.6315 54.1459C43.7496 55.2805 42.7682 56.3383 41.6985 57.3073L29.0332 63.9367L30.2704 111.076L30.7344 127.194C30.7344 127.194 40.4613 130.356 49.7296 130.356C58.998 130.356 75.5242 126.716 75.5242 126.716C75.5242 126.716 74.1376 63.9159 74.6016 63.9159C75.0656 63.9159 65.4879 55.8046 61.1631 53.6728C56.8382 51.541 48.1885 52.3417 48.1885 52.3417Z" fill="#3891CA" stroke="#263238" stroke-linecap="round" stroke-linejoin="round"/>
<path d="M44.5762 58.043C44.5762 58.043 49.4823 66.8562 51.5514 70.8859C53.6205 74.9155 57.4814 80.713 57.4814 80.713L63.9394 63.8457" stroke="#263238" stroke-linecap="round" stroke-linejoin="round"/>
<path d="M48.204 113.944L47.9533 106.909L33.3789 106.082C33.3789 106.082 33.5229 116.44 33.8055 117.001" stroke="#263238" stroke-linecap="round" stroke-linejoin="round"/>
<path d="M48.3779 118.926L48.3086 116.95" stroke="#263238" stroke-linecap="round" stroke-linejoin="round"/>
<path d="M65.6571 117.815L65.2305 106.22C65.2305 106.22 70.3286 106.631 74.5788 103.87" stroke="#263238" stroke-linecap="round" stroke-linejoin="round"/>
<path d="M43.804 78.5919C44.252 79.9698 45.6171 80.7809 46.849 80.3961C48.0809 80.0114 48.7048 78.5815 48.2515 77.2036C47.7982 75.8257 46.4384 75.0146 45.2065 75.3994C43.9747 75.7841 43.3507 77.214 43.804 78.5919Z" stroke="#263238" stroke-linecap="round" stroke-linejoin="round"/>
<path d="M43.9464 54.4658C43.9464 54.4658 42.3093 60.6013 46.0316 77.2555" stroke="#263238" stroke-width="2" stroke-linecap="round" stroke-linejoin="round"/>
<path d="M47.1771 77.8271C47.0674 78.0429 46.8965 78.2234 46.6847 78.3472C46.4728 78.4711 46.229 78.533 45.9822 78.5258C45.7353 78.5185 45.4958 78.4424 45.292 78.3063C45.0882 78.1703 44.9287 77.9801 44.8325 77.7583C44.7362 77.5366 44.7073 77.2925 44.7491 77.0552C44.7909 76.8179 44.9016 76.5972 45.0682 76.4194C45.2347 76.2416 45.4501 76.1142 45.6888 76.0522C45.9275 75.9902 46.1793 75.9963 46.4145 76.0697C46.7533 76.2058 47.0234 76.4667 47.1661 76.7957C47.3089 77.1247 47.3129 77.4953 47.1771 77.8271Z" stroke="#263238" stroke-linecap="round" stroke-linejoin="round"/>
<path d="M73.9806 63.0342C73.9806 63.0342 76.2951 64.6928 76.4497 65.296C76.6044 65.8991 84.4808 84.2692 84.4808 84.2692L73.0527 85.9122L73.2074 75.0659" fill="#3891CA"/>
<path d="M73.9806 63.0342C73.9806 63.0342 76.2951 64.6928 76.4497 65.296C76.6044 65.8991 84.4808 84.2692 84.4808 84.2692L73.0527 85.9122L73.2074 75.0659" stroke="#263238" stroke-linecap="round" stroke-linejoin="round"/>
<path d="M30.5768 63.3359C30.5768 63.3359 27.9477 63.6375 27.3291 65.5925C26.7105 67.5476 22.2363 87.4307 22.2363 87.4307L38.6079 85.9124L37.0614 71.0001" fill="#3891CA"/>
<path d="M30.5768 63.3359C30.5768 63.3359 27.9477 63.6375 27.3291 65.5925C26.7105 67.5476 22.2363 87.4307 22.2363 87.4307L38.6079 85.9124L37.0614 71.0001" stroke="#263238" stroke-linecap="round" stroke-linejoin="round"/>
<path d="M62.1992 53.5293C62.1992 53.5293 66.2574 55.7859 66.6574 61.4014C67.0574 67.0169 66.6574 68.4416 66.6574 68.4416" stroke="#263238" stroke-width="2" stroke-linecap="round" stroke-linejoin="round"/>
<path d="M68.4919 75.6318C68.4919 75.6318 68.1293 82.2717 67.388 84.1903C66.6468 86.1089 63.7138 88.3811 61.3887 88.7451" stroke="#263238" stroke-linecap="round" stroke-linejoin="round"/>
<path d="M63.2406 74.9141C63.2406 74.9141 62.9153 82.573 62.8833 83.9977C62.8513 85.4224 64.3232 87.9025 66.4349 90.2787" stroke="#263238" stroke-linecap="round" stroke-linejoin="round"/>
<path d="M67.0388 91.1154L67.1009 91.0663C67.3914 90.8366 67.436 90.4208 67.2004 90.1375L66.9014 89.7781C66.6658 89.4948 66.2393 89.4514 65.9488 89.6811L65.8867 89.7302C65.5962 89.9599 65.5516 90.3758 65.7872 90.659L66.0862 91.0185C66.3218 91.3017 66.7483 91.3452 67.0388 91.1154Z" fill="#263238"/>
<path d="M60.5543 88.9894L60.5692 89.066C60.6389 89.4244 60.9932 89.6598 61.3607 89.5919L61.827 89.5057C62.1945 89.4378 62.436 89.0923 62.3664 88.734L62.3515 88.6574C62.2818 88.2991 61.9275 88.0636 61.56 88.1315L61.0937 88.2177C60.7262 88.2856 60.4847 88.6311 60.5543 88.9894Z" fill="#263238"/>
<path d="M68.5728 76.1364L68.4181 70.5573C68.4037 69.9754 68.1673 69.4196 67.7551 68.9984C67.3429 68.5773 66.7845 68.3211 66.189 68.2799C65.5565 68.234 64.931 68.4341 64.4494 68.8365C63.9677 69.2389 63.669 69.8108 63.6186 70.4273L63.1387 76.0844" stroke="#263238" stroke-width="2" stroke-linecap="round" stroke-linejoin="round"/>
<path d="M81.8576 88.9378L78.1726 88.1839L65.198 86.0781L47.0027 82.6984L42.6885 80.8421C42.6885 80.8421 38.6089 75.6426 38.2569 75.1226C37.905 74.6027 33.2921 76.4173 33.4575 77.1088C33.6228 77.8004 34.1667 84.7106 34.524 85.1474C34.8813 85.5841 38.8649 85.5789 38.8649 85.5789C38.8649 85.5789 57.8708 94.5222 58.6601 94.8497C69.6295 99.3577 74.9196 99.3161 76.7914 99.6125C78.6632 99.9089 79.8844 99.1705 80.9617 97.9642C82.0389 96.758 81.8576 88.9378 81.8576 88.9378Z" fill="#999999" stroke="#263238" stroke-linecap="round" stroke-linejoin="round"/>
<path d="M37.6996 75.0498C37.6996 75.0498 35.4865 75.1382 32.2068 77.296C30.9856 78.1019 30.3457 78.6791 30.3457 79.0275C30.4156 79.4419 30.5355 79.8468 30.703 80.2338C32.8293 79.2354 35.0561 78.4547 37.3476 77.9044" fill="#999999"/>
<path d="M37.6996 75.0498C37.6996 75.0498 35.4865 75.1382 32.2068 77.296C30.9856 78.1019 30.3457 78.6791 30.3457 79.0275C30.4156 79.4419 30.5355 79.8468 30.703 80.2338C32.8293 79.2354 35.0561 78.4547 37.3476 77.9044" stroke="#263238" stroke-linecap="round" stroke-linejoin="round"/>
<path d="M38.5859 80.5816C38.5859 80.5816 32.5653 82.0479 31.5894 82.2247C30.6135 82.4014 30.4375 81.4447 30.4375 81.1016C30.4375 80.7584 30.7041 80.2332 31.7654 79.7185C32.8266 79.2037 38.1647 77.8154 38.1647 77.8154" fill="#999999"/>
<path d="M38.5859 80.5816C38.5859 80.5816 32.5653 82.0479 31.5894 82.2247C30.6135 82.4014 30.4375 81.4447 30.4375 81.1016C30.4375 80.7584 30.7041 80.2332 31.7654 79.7185C32.8266 79.2037 38.1647 77.8154 38.1647 77.8154" stroke="#263238" stroke-linecap="round" stroke-linejoin="round"/>
<path d="M39.2128 83.2604C39.2128 83.2604 32.2109 83.9519 31.6776 83.5204C31.5145 83.3471 31.3907 83.1423 31.3144 82.9191C31.2381 82.696 31.2111 82.4597 31.235 82.2257L37.5277 80.9258" fill="#999999"/>
<path d="M39.2128 83.2604C39.2128 83.2604 32.2109 83.9519 31.6776 83.5204C31.5145 83.3471 31.3907 83.1423 31.3144 82.9191C31.2381 82.696 31.2111 82.4597 31.235 82.2257L37.5277 80.9258" stroke="#263238" stroke-linecap="round" stroke-linejoin="round"/>
<path d="M37.2575 83.6035L31.8555 83.8635C31.8555 83.8635 32.1168 84.6434 32.3887 84.7266C33.6685 85.0349 34.9725 85.2383 36.287 85.335C37.149 85.3626 38.0079 85.4494 38.8574 85.5949" fill="#999999"/>
<path d="M37.2575 83.6035L31.8555 83.8635C31.8555 83.8635 32.1168 84.6434 32.3887 84.7266C33.6685 85.0349 34.9725 85.2383 36.287 85.335C37.149 85.3626 38.0079 85.4494 38.8574 85.5949" stroke="#263238" stroke-linecap="round" stroke-linejoin="round"/>
<path d="M25.6328 87.1283C25.6328 87.1283 28.1019 97.5274 28.7205 98.2762C29.3391 99.0249 34.4372 98.2762 39.5353 96.7683C44.6334 95.2604 66.2577 86.2288 66.2577 86.2288L69.3454 86.8268C69.3454 86.8268 68.1082 83.0623 65.9484 82.9115C63.7887 82.7607 38.6074 85.9116 38.6074 85.9116L25.6328 87.1283Z" fill="#999999" stroke="#263238" stroke-linecap="round" stroke-linejoin="round"/>
<path d="M47.2422 45.7139C47.2422 45.7139 47.2422 45.9374 47.2422 46.317C47.2902 48.298 47.4875 54.5895 48.0048 56.1078C48.6234 57.912 56.9638 73.1259 57.6037 71.9196C58.2437 70.7133 62.0832 54.2983 62.0832 54.2983V47.8249C62.0832 47.8249 60.0728 49.4783 56.3665 49.4783C52.6603 49.4783 47.2422 45.7139 47.2422 45.7139Z" fill="#999999" stroke="#263238" stroke-linecap="round" stroke-linejoin="round"/>
<path d="M59.6142 54.6363C60.479 54.1213 61.3059 53.548 62.0886 52.9204V47.8249C62.0886 47.8249 60.0781 49.4783 56.3719 49.4783C52.6656 49.4783 47.2422 45.7139 47.2422 45.7139C47.2422 45.7139 47.2422 45.9374 47.2422 46.317C47.2422 47.0138 47.2955 48.246 47.3595 49.6187C47.5058 49.8473 47.6698 50.0646 47.8501 50.2687C48.9167 51.4698 54.0254 54.4855 55.2626 54.7871C56.4998 55.0887 58.2223 55.385 59.6142 54.6363Z" fill="#263238" stroke="#263238" stroke-linecap="round" stroke-linejoin="round"/>
<path d="M65.7949 36.98C65.7949 36.98 68.264 35.6229 68.264 38.1863C68.264 40.7497 65.9496 43.7602 65.9496 43.7602L65.7949 36.98Z" fill="#999999" stroke="#263238" stroke-linecap="round" stroke-linejoin="round"/>
<path d="M43.707 37.1298C43.707 37.1298 40.3047 36.2251 40.3047 39.2408C40.3047 42.2566 43.3977 44.2064 43.3977 44.2064H45.5308C45.5308 44.2064 46.768 47.2221 47.8505 48.4232C48.9331 49.6243 54.0259 52.6401 55.2631 52.9417C56.5003 53.2432 58.1961 53.5448 59.5879 52.7909C61.3366 51.728 62.948 50.4641 64.3874 49.0264C65.006 48.2777 66.0886 43.1561 66.0886 43.1561C66.0886 43.1561 66.3979 33.9685 65.7793 30.8071C65.1607 27.6458 61.1451 22.6751 55.583 22.0719C50.021 21.4688 44.7682 25.8364 44.0003 29.2993C43.2324 32.7622 43.707 37.1298 43.707 37.1298Z" fill="#999999" stroke="#263238" stroke-linecap="round" stroke-linejoin="round"/>
<path d="M53.745 39.543C53.745 39.543 52.6784 41.6488 54.5182 42.2519C56.358 42.8551 58.6884 42.7043 59.1524 41.7996C59.6163 40.8949 58.8431 39.8445 58.8431 39.8445" stroke="#263238" stroke-linecap="round" stroke-linejoin="round"/>
<path d="M51.8926 43.3066C51.8926 43.3066 55.7535 46.468 61.0063 43.4574" stroke="#263238" stroke-linecap="round" stroke-linejoin="round"/>
<path d="M54.0508 46.1668C54.0508 46.1668 57.2984 47.9763 59.4582 45.8652" stroke="#263238" stroke-linecap="round" stroke-linejoin="round"/>
<path d="M52.2029 37.7329C52.63 37.7329 52.9762 37.1928 52.9762 36.5266C52.9762 35.8604 52.63 35.3203 52.2029 35.3203C51.7759 35.3203 51.4297 35.8604 51.4297 36.5266C51.4297 37.1928 51.7759 37.7329 52.2029 37.7329Z" fill="#263238"/>
<path d="M60.5406 36.3769C60.5406 37.0424 60.194 37.5832 59.7674 37.5832C59.3408 37.5832 58.9941 37.0632 58.9941 36.3769C58.9941 35.6905 59.3408 35.1758 59.7674 35.1758C60.194 35.1758 60.5406 35.7113 60.5406 36.3769Z" fill="#263238"/>
<path d="M50.0332 34.874C50.0332 34.874 50.8065 33.6677 53.7661 34.1201" stroke="#263238" stroke-linecap="round" stroke-linejoin="round"/>
<path d="M58.5273 34.2703C58.5273 34.2703 59.9192 32.1592 62.0843 34.2703" stroke="#263238" stroke-linecap="round" stroke-linejoin="round"/>
<path d="M65.7924 30.7952C65.5917 29.9009 65.2442 29.044 64.7631 28.2578C64.5832 29.0914 64.5204 29.9451 64.5765 30.7952C64.8005 31.8975 65.595 33.4366 65.595 34.2061C65.595 34.9756 65.4777 38.059 66.043 37.6222C66.099 37.5645 66.1441 37.4976 66.1763 37.4246C66.2116 35.2087 66.0833 32.9932 65.7924 30.7952Z" fill="#263238" stroke="#263238" stroke-linecap="round" stroke-linejoin="round"/>
<path d="M58.03 24.5577C59.0217 24.5064 60.0087 24.3901 60.9843 24.2093C59.4087 23.0593 57.5518 22.3315 55.5982 22.0983C50.0362 21.4951 44.7834 25.8627 44.0155 29.3257C43.2476 32.7886 43.7062 37.1562 43.7062 37.1562C43.7062 37.1562 44.9327 37.9881 45.386 37.1094C45.8393 36.2307 45.386 34.7956 45.8393 33.2565C46.2926 31.7174 46.9645 30.9427 47.0765 29.7312C47.1885 28.5197 46.3992 26.7623 46.8525 25.7692C47.3058 24.776 50.1268 22.9094 51.9346 23.5697C53.8796 24.288 55.9512 24.6238 58.03 24.5577Z" fill="#263238" stroke="#263238" stroke-linecap="round" stroke-linejoin="round"/>
</svg>
