<svg width="54" height="54" viewBox="0 0 54 54" fill="none" xmlns="http://www.w3.org/2000/svg">
<mask id="mask0_425_1598" style="mask-type:luminance" maskUnits="userSpaceOnUse" x="3" y="3" width="48" height="48">
<path d="M27 49.5C29.9553 49.5038 32.8822 48.9236 35.6126 47.7926C38.3429 46.6616 40.8228 45.0022 42.9098 42.9098C45.0022 40.8228 46.6616 38.3429 47.7926 35.6126C48.9236 32.8822 49.5038 29.9553 49.5 27C49.5038 24.0447 48.9235 21.1178 47.7925 18.3875C46.6616 15.6572 45.0022 13.1773 42.9098 11.0903C40.8228 8.9978 38.3429 7.33839 35.6126 6.20741C32.8822 5.07644 29.9553 4.49619 27 4.50002C24.0447 4.49625 21.1178 5.07653 18.3875 6.2075C15.6572 7.33847 13.1773 8.99785 11.0903 11.0903C8.99785 13.1773 7.33847 15.6572 6.2075 18.3875C5.07653 21.1178 4.49625 24.0447 4.50002 27C4.49619 29.9553 5.07644 32.8822 6.20741 35.6126C7.33839 38.3429 8.9978 40.8228 11.0903 42.9098C13.1773 45.0022 15.6572 46.6616 18.3875 47.7925C21.1178 48.9235 24.0447 49.5038 27 49.5Z" fill="white" stroke="white" stroke-width="2" stroke-linejoin="round"/>
<path d="M18 27L24.75 33.75L38.25 20.25" stroke="black" stroke-width="2" stroke-linecap="round" stroke-linejoin="round"/>
</mask>
<g mask="url(#mask0_425_1598)">
<path d="M0 0H54V54H0V0Z" fill="#107BC0"/>
</g>
</svg>
