<svg width="48" height="48" viewBox="0 0 48 48" fill="none" xmlns="http://www.w3.org/2000/svg">
<mask id="mask0_425_1604" style="mask-type:luminance" maskUnits="userSpaceOnUse" x="0" y="0" width="48" height="48">
<path d="M24 46.5C26.9553 46.5038 29.8822 45.9236 32.6126 44.7926C35.3429 43.6616 37.8228 42.0022 39.9098 39.9098C42.0022 37.8228 43.6616 35.3429 44.7926 32.6126C45.9236 29.8822 46.5038 26.9553 46.5 24C46.5038 21.0447 45.9235 18.1178 44.7925 15.3875C43.6616 12.6572 42.0022 10.1773 39.9098 8.09027C37.8228 5.9978 35.3429 4.33839 32.6126 3.20741C29.8822 2.07644 26.9553 1.49619 24 1.50002C21.0447 1.49625 18.1178 2.07653 15.3875 3.2075C12.6572 4.33847 10.1773 5.99785 8.09027 8.09027C5.99785 10.1773 4.33847 12.6572 3.2075 15.3875C2.07653 18.1178 1.49625 21.0447 1.50002 24C1.49619 26.9553 2.07644 29.8822 3.20741 32.6126C4.33839 35.3429 5.9978 37.8228 8.09027 39.9098C10.1773 42.0022 12.6572 43.6616 15.3875 44.7925C18.1178 45.9235 21.0447 46.5038 24 46.5Z" fill="white" stroke="white" stroke-width="2" stroke-linejoin="round"/>
<path d="M15 24L21.75 30.75L35.25 17.25" stroke="black" stroke-width="2" stroke-linecap="round" stroke-linejoin="round"/>
</mask>
<g mask="url(#mask0_425_1604)">
<path d="M-3 -3H51V51H-3V-3Z" fill="#107BC0"/>
</g>
</svg>
