<svg width="24" height="24" viewBox="0 0 24 24" fill="none" xmlns="http://www.w3.org/2000/svg">
<path fill-rule="evenodd" clip-rule="evenodd" d="M10.7396 3.25C9.96556 3.25 9.32056 3.841 9.25256 4.612C9.1114 6.22294 9.07565 7.84139 9.14556 9.457L8.89256 9.475L7.40256 9.583C7.18496 9.5989 6.97522 9.67103 6.79386 9.79233C6.6125 9.91363 6.46576 10.0799 6.36798 10.275C6.2702 10.47 6.22475 10.6871 6.23607 10.905C6.24739 11.1229 6.3151 11.3341 6.43256 11.518C7.52898 13.2337 8.94176 14.7252 10.5956 15.913L11.1916 16.342C11.4276 16.5116 11.7109 16.6029 12.0016 16.6029C12.2922 16.6029 12.5755 16.5116 12.8116 16.342L13.4076 15.913C15.061 14.7252 16.4735 13.2337 17.5696 11.518C17.687 11.3341 17.7547 11.1229 17.7661 10.905C17.7774 10.6871 17.7319 10.47 17.6342 10.275C17.5364 10.0799 17.3896 9.91363 17.2083 9.79233C17.0269 9.67103 16.8172 9.5989 16.5996 9.583L15.1096 9.475C15.0256 9.46875 14.9416 9.46275 14.8576 9.457C14.9276 7.842 14.8916 6.223 14.7506 4.612C14.718 4.24011 14.5473 3.89392 14.272 3.64177C13.9967 3.38962 13.6369 3.24983 13.2636 3.25H10.7396ZM10.6836 10.115C10.5697 8.32763 10.5907 6.53421 10.7466 4.75H13.2566C13.4128 6.53418 13.4342 8.3276 13.3206 10.115C13.3144 10.2141 13.3279 10.3134 13.3603 10.4073C13.3928 10.5011 13.4436 10.5875 13.5097 10.6616C13.5759 10.7356 13.6561 10.7958 13.7456 10.8386C13.8352 10.8814 13.9324 10.906 14.0316 10.911C14.3556 10.927 14.6786 10.947 15.0016 10.971L16.0826 11.05C15.1224 12.464 13.9207 13.6979 12.5326 14.695L12.0026 15.076L11.4706 14.695C10.0823 13.6976 8.8806 12.4634 7.92056 11.049L9.00156 10.972C9.32456 10.948 9.64856 10.928 9.97156 10.912C10.0708 10.9072 10.1681 10.8826 10.2578 10.8399C10.3475 10.7971 10.4278 10.737 10.494 10.6629C10.5603 10.5888 10.6111 10.5024 10.6437 10.4085C10.6762 10.3146 10.6898 10.2152 10.6836 10.116V10.115Z" fill="#3B3B3B"/>
<path d="M5.75 17C5.75 16.8011 5.67098 16.6103 5.53033 16.4697C5.38968 16.329 5.19891 16.25 5 16.25C4.80109 16.25 4.61032 16.329 4.46967 16.4697C4.32902 16.6103 4.25 16.8011 4.25 17V19C4.25 19.966 5.034 20.75 6 20.75H18C18.4641 20.75 18.9092 20.5656 19.2374 20.2374C19.5656 19.9092 19.75 19.4641 19.75 19V17C19.75 16.8011 19.671 16.6103 19.5303 16.4697C19.3897 16.329 19.1989 16.25 19 16.25C18.8011 16.25 18.6103 16.329 18.4697 16.4697C18.329 16.6103 18.25 16.8011 18.25 17V19C18.25 19.0663 18.2237 19.1299 18.1768 19.1768C18.1299 19.2237 18.0663 19.25 18 19.25H6C5.9337 19.25 5.87011 19.2237 5.82322 19.1768C5.77634 19.1299 5.75 19.0663 5.75 19V17Z" fill="#3B3B3B"/>
</svg>
