<svg width="45" height="36" viewBox="0 0 45 36" fill="none" xmlns="http://www.w3.org/2000/svg">
<path d="M40.5 0H4.5C2.025 0 0.0225 2.025 0.0225 4.5L0 31.5C0 33.975 2.025 36 4.5 36H40.5C42.975 36 45 33.975 45 31.5V4.5C45 2.025 42.975 0 40.5 0ZM39.6 9.5625L23.6925 19.5075C22.9725 19.9575 22.0275 19.9575 21.3075 19.5075L5.4 9.5625C5.17439 9.43585 4.97682 9.26474 4.81925 9.05952C4.66168 8.8543 4.54739 8.61925 4.48329 8.36858C4.4192 8.11792 4.40663 7.85685 4.44635 7.60119C4.48607 7.34553 4.57726 7.10058 4.71438 6.88118C4.85151 6.66177 5.03173 6.47248 5.24413 6.32474C5.45654 6.177 5.69671 6.0739 5.95011 6.02167C6.20352 5.96944 6.46489 5.96918 6.7184 6.02088C6.97191 6.07259 7.21229 6.1752 7.425 6.3225L22.5 15.75L37.575 6.3225C37.7877 6.1752 38.0281 6.07259 38.2816 6.02088C38.5351 5.96918 38.7965 5.96944 39.0499 6.02167C39.3033 6.0739 39.5435 6.177 39.7559 6.32474C39.9683 6.47248 40.1485 6.66177 40.2856 6.88118C40.4227 7.10058 40.5139 7.34553 40.5536 7.60119C40.5934 7.85685 40.5808 8.11792 40.5167 8.36858C40.4526 8.61925 40.3383 8.8543 40.1808 9.05952C40.0232 9.26474 39.8256 9.43585 39.6 9.5625Z" fill="#107BC0"/>
</svg>
