<svg width="35" height="35" viewBox="0 0 35 35" fill="none" xmlns="http://www.w3.org/2000/svg">
<g clip-path="url(#clip0_1692_10464)">
<path d="M19.8116 2.91602C20.4964 2.91618 21.1592 3.15727 21.6841 3.59706L21.8737 3.7706L28.3108 10.2077C28.795 10.6919 29.0934 11.331 29.1537 12.0131L29.1654 12.2698V29.166C29.1656 29.9019 28.8877 30.6106 28.3873 31.1501C27.887 31.6897 27.2012 32.0202 26.4674 32.0754L26.2487 32.0827H8.7487C8.01286 32.0829 7.30412 31.805 6.76457 31.3047C6.22501 30.8043 5.89451 30.1185 5.83932 29.3848L5.83203 29.166V5.83268C5.8318 5.09684 6.10971 4.38811 6.61005 3.84855C7.11039 3.30899 7.79618 2.9785 8.52995 2.92331L8.7487 2.91602H19.8116ZM17.4987 5.83268H8.7487V29.166H26.2487V14.5827H19.6862C19.106 14.5827 18.5496 14.3522 18.1394 13.942C17.7292 13.5317 17.4987 12.9753 17.4987 12.3952V5.83268ZM17.4987 16.7702C17.8855 16.7702 18.2564 16.9238 18.5299 17.1973C18.8034 17.4708 18.957 17.8417 18.957 18.2285V20.416H21.1445C21.5313 20.416 21.9022 20.5697 22.1757 20.8432C22.4492 21.1166 22.6029 21.4876 22.6029 21.8743C22.6029 22.2611 22.4492 22.6321 22.1757 22.9055C21.9022 23.179 21.5313 23.3327 21.1445 23.3327H18.957V25.5202C18.957 25.907 18.8034 26.2779 18.5299 26.5514C18.2564 26.8249 17.8855 26.9785 17.4987 26.9785C17.1119 26.9785 16.741 26.8249 16.4675 26.5514C16.194 26.2779 16.0404 25.907 16.0404 25.5202V23.3327H13.8529C13.4661 23.3327 13.0952 23.179 12.8217 22.9055C12.5482 22.6321 12.3945 22.2611 12.3945 21.8743C12.3945 21.4876 12.5482 21.1166 12.8217 20.8432C13.0952 20.5697 13.4661 20.416 13.8529 20.416H16.0404V18.2285C16.0404 17.8417 16.194 17.4708 16.4675 17.1973C16.741 16.9238 17.1119 16.7702 17.4987 16.7702ZM20.4154 6.43643V11.666H25.6449L20.4154 6.43643Z" fill="#64748B"/>
</g>
<defs>
<clipPath id="clip0_1692_10464">
<rect width="35" height="35" fill="white"/>
</clipPath>
</defs>
</svg>
