<svg width="238" height="51" viewBox="0 0 238 51" fill="none" xmlns="http://www.w3.org/2000/svg">
<path fill-rule="evenodd" clip-rule="evenodd" d="M29.1767 28.3601C30.736 28.3389 31.9831 27.0578 31.9623 25.4985C31.9414 23.9393 30.6605 22.6924 29.1012 22.7136L18.851 22.8528L18.7123 12.4787C18.6916 10.9316 17.4207 9.69452 15.8736 9.71553C14.3265 9.73654 13.0891 11.0077 13.1098 12.5548L13.2865 25.7742C13.3072 27.3212 14.5782 28.5584 16.1252 28.5374C16.1281 28.5373 16.1309 28.5373 16.1338 28.5372C16.1386 28.5372 16.1435 28.5371 16.1484 28.5371L29.1767 28.3601Z" fill="#107BC0"/>
<path fill-rule="evenodd" clip-rule="evenodd" d="M13.0732 38.6983C13.0732 40.2455 14.3275 41.4998 15.8747 41.4998C17.4219 41.4998 18.6762 40.2455 18.6762 38.6983V25.5441C18.6764 25.5294 18.6765 25.5146 18.6765 25.4998C18.6765 25.4813 18.6764 25.4628 18.676 25.4443C18.6581 23.9125 17.4108 22.6763 15.8747 22.6763C15.8693 22.6763 15.8638 22.6763 15.8583 22.6763C15.8566 22.6763 15.8548 22.6763 15.853 22.6763H2.82353C1.26414 22.6763 0 23.9404 0 25.4998C0 27.0592 1.26413 28.3234 2.82353 28.3234H13.0732V38.6983Z" fill="black"/>
<path d="M42.5593 12.844H51.5833C57.4393 12.844 63.0073 16.556 63.0073 24.172C63.0073 32.204 56.0312 35.5 51.1033 35.5H42.5593V12.844ZM46.5913 31.852H49.7593C54.5913 31.852 58.7833 29.676 58.7833 24.172C58.7833 18.668 55.2313 16.492 50.3033 16.492H46.5913V31.852ZM68.4405 12.62C69.8485 12.62 70.9365 13.612 70.9365 14.924C70.9365 16.3 69.8165 17.228 68.4405 17.228C67.0645 17.228 66.0085 16.172 66.0085 14.924C66.0085 13.676 67.0645 12.62 68.4405 12.62ZM70.3925 20.14V35.5H66.5525V20.14H70.3925ZM79.377 35.884C76.209 35.884 73.777 34.092 73.777 31.276C73.777 27.724 76.625 25.932 83.217 25.932H84.401V25.484C84.401 23.692 82.993 22.636 80.881 22.636C79.281 22.636 77.841 23.276 76.785 24.236L74.769 22.22C76.145 20.812 78.289 19.756 81.297 19.756C86.545 19.756 87.857 22.7 87.857 26.316V35.5H84.401V33.388H84.305C83.217 35.116 81.425 35.884 79.377 35.884ZM83.057 28.62C79.665 28.62 77.617 29.356 77.617 30.988C77.617 32.3 78.897 33.004 80.337 33.004C82.961 33.004 84.177 31.532 84.177 29.58V28.62H83.057ZM103.093 12.268C106.325 12.268 108.885 13.42 111.029 15.852L107.892 18.156C106.581 16.748 105.109 15.916 103.125 15.916C98.4845 15.916 95.3485 19.5 95.3485 24.012C95.3485 28.684 98.3565 32.428 103.125 32.428C105.269 32.428 106.933 31.308 108.213 29.676L111.541 32.044C109.589 34.796 106.421 36.076 103.093 36.076C96.1165 36.076 91.1245 31.308 91.1245 24.268C91.1245 17.228 95.8605 12.268 103.093 12.268ZM113.895 20.14H117.735V28.076C117.735 31.148 118.695 32.428 120.551 32.428C122.823 32.428 124.071 30.892 124.071 28.524V20.14H127.911V35.5H124.263V33.036H124.199C123.303 34.956 121.671 35.884 119.495 35.884C115.015 35.884 113.895 32.492 113.895 29.964V20.14ZM132.27 35.5V20.14H136.11V22.572H136.174C137.006 20.812 138.702 19.756 140.718 19.756C141.294 19.756 141.582 19.852 142.094 19.98V23.692C141.358 23.5 140.814 23.404 140.238 23.404C137.326 23.404 136.11 25.452 136.11 27.5V35.5H132.27ZM149.283 35.884C146.115 35.884 143.683 34.092 143.683 31.276C143.683 27.724 146.531 25.932 153.123 25.932H154.307V25.484C154.307 23.692 152.899 22.636 150.787 22.636C149.187 22.636 147.747 23.276 146.691 24.236L144.675 22.22C146.051 20.812 148.195 19.756 151.203 19.756C156.451 19.756 157.763 22.7 157.763 26.316V35.5H154.307V33.388H154.211C153.123 35.116 151.331 35.884 149.283 35.884ZM152.963 28.62C149.571 28.62 147.523 29.356 147.523 30.988C147.523 32.3 148.803 33.004 150.243 33.004C152.867 33.004 154.083 31.532 154.083 29.58V28.62H152.963ZM168.711 25.996V29.26H160.807V25.996H168.711Z" fill="#107BC0"/>
<path d="M172.437 35.5V12.844H178.581L184.629 28.716L190.741 12.844H196.821V35.5H192.981V16.684H192.917L186.037 35.5H183.221L176.341 16.684H176.277V35.5H172.437ZM209.198 19.756C214.062 19.756 216.398 23.436 216.398 28.076V29.164H204.686C204.942 31.372 206.606 32.812 208.814 32.812C210.542 32.812 211.854 32.076 212.942 30.732L215.694 32.812C214.03 34.86 211.822 35.884 209.198 35.884C204.494 35.884 200.846 32.62 200.846 27.82C200.846 23.052 204.494 19.756 209.198 19.756ZM204.686 26.284H212.558C212.526 23.884 210.894 22.636 208.622 22.636C206.35 22.636 204.974 24.108 204.686 26.284ZM231.957 11.308H235.797V35.5H232.149V33.196H232.085C230.933 35.084 228.917 35.884 226.773 35.884C222.101 35.884 219.221 32.428 219.221 27.82C219.221 23.468 222.101 19.756 226.645 19.756C228.693 19.756 230.549 20.46 231.861 22.092H231.957V11.308ZM223.061 27.82C223.061 30.38 224.885 32.428 227.573 32.428C230.645 32.428 232.085 29.932 232.085 27.82C232.085 25.036 230.005 23.212 227.573 23.212C224.885 23.212 223.061 25.292 223.061 27.82Z" fill="white"/>
</svg>
