<svg width="10" height="10" viewBox="0 0 10 10" fill="none" xmlns="http://www.w3.org/2000/svg">
<path d="M9.16212 4.46789L7.4004 6.00539L7.92813 8.29445C7.95606 8.41412 7.94809 8.53936 7.90522 8.65452C7.86236 8.76968 7.78649 8.86965 7.68712 8.94193C7.58774 9.01421 7.46927 9.0556 7.3465 9.06091C7.22374 9.06622 7.10213 9.03522 6.99688 8.9718L5.0004 7.76086L3.00821 8.9718C2.90297 9.03522 2.78136 9.06622 2.65859 9.06091C2.53583 9.0556 2.41735 9.01421 2.31798 8.94193C2.2186 8.86965 2.14274 8.76968 2.09987 8.65452C2.057 8.53936 2.04904 8.41412 2.07696 8.29445L2.60391 6.00773L0.841806 4.46789C0.748606 4.38751 0.681213 4.2814 0.648077 4.16287C0.614942 4.04434 0.61754 3.91866 0.655545 3.80161C0.693549 3.68455 0.76527 3.58131 0.861711 3.50485C0.958153 3.42839 1.07502 3.3821 1.19766 3.3718L3.52032 3.17062L4.42696 1.00813C4.47431 0.894655 4.55417 0.79773 4.65649 0.729554C4.75881 0.661378 4.87901 0.625 5.00196 0.625C5.12491 0.625 5.24512 0.661378 5.34744 0.729554C5.44976 0.79773 5.52962 0.894655 5.57696 1.00813L6.48634 3.17062L8.80821 3.3718C8.93085 3.3821 9.04772 3.42839 9.14417 3.50485C9.24061 3.58131 9.31233 3.68455 9.35033 3.80161C9.38834 3.91866 9.39093 4.04434 9.3578 4.16287C9.32466 4.2814 9.25727 4.38751 9.16407 4.46789H9.16212Z" fill="#FFCC4D"/>
</svg>
