<svg width="10" height="10" viewBox="0 0 10 10" fill="none" xmlns="http://www.w3.org/2000/svg">
<path d="M9.017 3.60605L6.54 3.38945L5.57274 1.09454C5.39874 0.676819 4.80508 0.676819 4.63107 1.09454L3.66381 3.39461L1.19193 3.60605C0.74157 3.64215 0.557331 4.20943 0.900221 4.50854L2.77844 6.14849L2.21549 8.58264C2.11313 9.02615 2.58908 9.37683 2.97803 9.13961L5.10191 7.85033L7.22578 9.14476C7.61473 9.38199 8.09068 9.03131 7.98833 8.5878L7.42537 6.14849L9.30359 4.50854C9.64648 4.20943 9.46736 3.64215 9.017 3.60605ZM5.10191 6.88596V2.08986L5.97705 4.17333L8.21863 4.3693L6.51953 5.85454L7.0313 8.06177L5.10191 6.88596Z" fill="#FFCC4D"/>
</svg>
