<svg width="22" height="22" viewBox="0 0 22 22" fill="none" xmlns="http://www.w3.org/2000/svg">
<path d="M10.5 3.5V0.5H11.5V3.5H10.5ZM16.65 6.04289L15.9775 5.37036L18.0766 3.21504L18.771 3.92189L16.65 6.04289ZM18.5 10.5H21.5V11.5H18.5V10.5ZM10.5 21.5V18.5H11.5V21.5H10.5ZM5.35169 6.00378L3.21508 3.9234L3.92189 3.22899L6.03641 5.34351L5.35169 6.00378ZM16.6313 15.9759L18.7678 18.0374L18.0502 18.7802L15.9759 16.6312L16.6313 15.9759ZM0.5 11.5V10.5H3.5V11.5H0.5ZM5.70599 16.3129L6.06164 16.6563L3.92814 18.7898L3.22899 18.0781L5.3374 15.9697L5.70599 16.3129ZM11 16.5C9.46443 16.5 8.17539 15.9683 7.10355 14.8964C6.03172 13.8246 5.5 12.5356 5.5 11C5.5 9.46443 6.03172 8.17539 7.10355 7.10355C8.17539 6.03172 9.46443 5.5 11 5.5C12.5356 5.5 13.8246 6.03172 14.8964 7.10355C15.9683 8.17539 16.5 9.46443 16.5 11C16.5 12.5356 15.9683 13.8246 14.8964 14.8964C13.8246 15.9683 12.5356 16.5 11 16.5Z" stroke="#107BC0"/>
</svg>
