<svg width="24" height="24" viewBox="0 0 24 24" fill="none" xmlns="http://www.w3.org/2000/svg">
<path d="M15.9375 22.4994H4.96875C3.58594 22.4994 2.39438 22.1324 1.52203 21.4382C0.526406 20.645 0 19.4689 0 18.0369C0 16.6569 0.566719 15.4939 1.64062 14.6741C2.20781 14.24 2.91563 13.9161 3.67172 13.7342C3.80842 13.7004 3.93284 13.6288 4.03074 13.5276C4.12865 13.4264 4.19607 13.2997 4.22531 13.1619C4.56047 11.6366 5.26828 10.3264 6.30328 9.32987C7.53131 8.14863 9.17109 7.49208 10.875 7.4994C12.3905 7.4994 13.7883 7.99862 14.9175 8.94268C15.67 9.57699 16.2727 10.37 16.6823 11.2649C16.7307 11.3707 16.803 11.4639 16.8934 11.5371C16.9838 11.6102 17.09 11.6615 17.2036 11.6867C18.3286 11.9314 19.3327 12.4264 20.092 13.1192C21.1767 14.1088 21.75 15.4597 21.75 17.0244C21.75 18.5642 21.1345 19.9714 20.0156 20.9863C18.9427 21.9622 17.4937 22.4994 15.9375 22.4994ZM23.9311 9.83331C23.9843 9.71464 24.0064 9.58438 23.9953 9.4548C23.9842 9.32523 23.9404 9.20061 23.8678 9.09268C23.769 8.94942 23.6234 8.84499 23.4561 8.79727C23.2887 8.74955 23.11 8.76152 22.9505 8.83112C22.4489 9.04909 21.803 9.16721 21.0792 9.17237C18.487 9.19112 16.327 7.063 16.327 4.47034C16.327 3.73206 16.4433 3.07159 16.6636 2.55971C16.7182 2.43588 16.739 2.29975 16.7238 2.16525C16.7085 2.03075 16.6578 1.90272 16.5769 1.79425C16.4754 1.66067 16.332 1.56498 16.1697 1.5225C16.0074 1.48001 15.8355 1.49317 15.6816 1.55987C13.8708 2.34831 12.5794 3.9744 12.1533 5.89768C12.1479 5.92228 12.1475 5.9477 12.1522 5.97244C12.1568 5.99718 12.1664 6.02073 12.1804 6.04169C12.1943 6.06264 12.2124 6.08057 12.2334 6.09441C12.2544 6.10824 12.278 6.1177 12.3028 6.12221C13.621 6.35445 14.8547 6.92986 15.8798 7.7905C16.6298 8.41944 17.2594 9.17924 17.738 10.033C17.8351 10.2057 17.9954 10.334 18.1852 10.3911C19.305 10.7272 20.2992 11.2771 21.1031 12.0102C21.2419 12.1374 21.3744 12.2689 21.5006 12.4049C21.5312 12.4374 21.5723 12.4579 21.6166 12.4628C21.661 12.4677 21.7056 12.4566 21.7425 12.4316C22.7051 11.7922 23.4646 10.8906 23.9311 9.83331Z" fill="#107BC0"/>
</svg>
