<svg width="22" height="22" viewBox="0 0 22 22" fill="none" xmlns="http://www.w3.org/2000/svg">
<path d="M10 4V0H12V4H10ZM16.65 6.75L15.275 5.375L18.075 2.5L19.475 3.925L16.65 6.75ZM18 12V10H22V12H18ZM10 22V18H12V22H10ZM5.35 6.7L2.5 3.925L3.925 2.525L6.75 5.35L5.35 6.7ZM18.05 19.5L15.275 16.625L16.625 15.275L19.475 18.025L18.05 19.5ZM0 12V10H4V12H0ZM3.925 19.5L2.525 18.075L5.325 15.275L6.05 15.95L6.775 16.65L3.925 19.5ZM11 17C9.33333 17 7.91667 16.4167 6.75 15.25C5.58333 14.0833 5 12.6667 5 11C5 9.33333 5.58333 7.91667 6.75 6.75C7.91667 5.58333 9.33333 5 11 5C12.6667 5 14.0833 5.58333 15.25 6.75C16.4167 7.91667 17 9.33333 17 11C17 12.6667 16.4167 14.0833 15.25 15.25C14.0833 16.4167 12.6667 17 11 17Z" fill="#107BC0"/>
</svg>
