<svg width="37" height="48" viewBox="0 0 37 48" fill="none" xmlns="http://www.w3.org/2000/svg">
<path d="M18.5 36.25C19.6935 36.25 20.8381 35.7759 21.682 34.932C22.5259 34.0881 23 32.9435 23 31.75C23 30.5565 22.5259 29.4119 21.682 28.568C20.8381 27.7241 19.6935 27.25 18.5 27.25C17.3065 27.25 16.1619 27.7241 15.318 28.568C14.4741 29.4119 14 30.5565 14 31.75C14 32.9435 14.4741 34.0881 15.318 34.932C16.1619 35.7759 17.3065 36.25 18.5 36.25ZM32 16C33.1935 16 34.3381 16.4741 35.182 17.318C36.0259 18.1619 36.5 19.3065 36.5 20.5V43C36.5 44.1935 36.0259 45.3381 35.182 46.182C34.3381 47.0259 33.1935 47.5 32 47.5H5C3.80653 47.5 2.66193 47.0259 1.81802 46.182C0.974106 45.3381 0.5 44.1935 0.5 43V20.5C0.5 19.3065 0.974106 18.1619 1.81802 17.318C2.66193 16.4741 3.80653 16 5 16H7.25V11.5C7.25 8.51631 8.43526 5.65483 10.545 3.54505C12.6548 1.43526 15.5163 0.25 18.5 0.25C19.9774 0.25 21.4403 0.54099 22.8052 1.10636C24.1701 1.67172 25.4103 2.50039 26.455 3.54505C27.4996 4.58971 28.3283 5.8299 28.8936 7.19481C29.459 8.55972 29.75 10.0226 29.75 11.5V16H32ZM18.5 4.75C16.7098 4.75 14.9929 5.46116 13.727 6.72703C12.4612 7.9929 11.75 9.70979 11.75 11.5V16H25.25V11.5C25.25 9.70979 24.5388 7.9929 23.273 6.72703C22.0071 5.46116 20.2902 4.75 18.5 4.75Z" fill="#107BC0"/>
</svg>
