<svg width="20" height="20" viewBox="0 0 20 20" fill="none" xmlns="http://www.w3.org/2000/svg">
<path fill-rule="evenodd" clip-rule="evenodd" d="M3 5.75C3 5.48478 3.10536 5.23043 3.29289 5.04289C3.48043 4.85536 3.73478 4.75 4 4.75C7.335 4.75 10.5 6.876 10.5 10C10.5 13.124 7.335 15.25 4 15.25C3.73478 15.25 3.48043 15.1446 3.29289 14.9571C3.10536 14.7696 3 14.5152 3 14.25C3 13.9848 3.10536 13.7304 3.29289 13.5429C3.48043 13.3554 3.73478 13.25 4 13.25C6.74 13.25 8.5 11.57 8.5 10C8.5 8.43 6.74 6.75 4 6.75C3.73478 6.75 3.48043 6.64464 3.29289 6.45711C3.10536 6.26957 3 6.01522 3 5.75Z" fill="#107BC0"/>
<path fill-rule="evenodd" clip-rule="evenodd" d="M16 5.75C16 5.48478 15.8946 5.23043 15.7071 5.04289C15.5196 4.85536 15.2652 4.75 15 4.75C11.665 4.75 8.5 6.876 8.5 10C8.5 13.124 11.665 15.25 15 15.25C15.2652 15.25 15.5196 15.1446 15.7071 14.9571C15.8946 14.7696 16 14.5152 16 14.25C16 13.9848 15.8946 13.7304 15.7071 13.5429C15.5196 13.3554 15.2652 13.25 15 13.25C12.26 13.25 10.5 11.57 10.5 10C10.5 8.43 12.26 6.75 15 6.75C15.2652 6.75 15.5196 6.64464 15.7071 6.45711C15.8946 6.26957 16 6.01522 16 5.75Z" fill="#107BC0"/>
<path fill-rule="evenodd" clip-rule="evenodd" d="M16.4598 14.7784C16.382 14.8389 16.293 14.8834 16.1979 14.9095C16.1028 14.9355 16.0036 14.9426 15.9058 14.9302C15.808 14.9179 15.7136 14.8864 15.628 14.8375C15.5423 14.7886 15.4672 14.7234 15.4068 14.6454L13.9068 12.7094C13.7892 12.5519 13.7381 12.3544 13.7647 12.1595C13.7912 11.9647 13.8932 11.788 14.0487 11.6677C14.2043 11.5473 14.4008 11.4928 14.5961 11.516C14.7914 11.5391 14.9698 11.638 15.0928 11.7914L16.5928 13.7264C16.7145 13.8837 16.7688 14.0829 16.7437 14.2802C16.7185 14.4775 16.6171 14.6567 16.4598 14.7784Z" fill="#107BC0"/>
<path fill-rule="evenodd" clip-rule="evenodd" d="M14.05 16.7852C13.9712 16.7261 13.9048 16.652 13.8546 16.5673C13.8045 16.4825 13.7715 16.3887 13.7575 16.2912C13.7436 16.1937 13.749 16.0944 13.7735 15.999C13.7979 15.9036 13.8409 15.8139 13.9 15.7352L15.4 13.7352C15.4591 13.6564 15.5331 13.59 15.6179 13.5398C15.7026 13.4896 15.7964 13.4566 15.8939 13.4427C15.9914 13.4288 16.0907 13.4342 16.1861 13.4586C16.2815 13.4831 16.3712 13.5261 16.45 13.5852C16.5288 13.6442 16.5952 13.7183 16.6454 13.803C16.6955 13.8878 16.7285 13.9816 16.7425 14.0791C16.7564 14.1766 16.751 14.2759 16.7265 14.3713C16.7021 14.4667 16.6591 14.5564 16.6 14.6352L15.1 16.6352C14.9807 16.7943 14.803 16.8995 14.6061 16.9276C14.4092 16.9557 14.2091 16.9045 14.05 16.7852ZM16.46 5.22215C16.3822 5.16168 16.2931 5.11715 16.1981 5.09111C16.103 5.06506 16.0037 5.05801 15.9059 5.07036C15.8081 5.08272 15.7137 5.11423 15.6281 5.16309C15.5425 5.21196 15.4674 5.27722 15.407 5.35515L13.907 7.29115C13.7894 7.44873 13.7383 7.64622 13.7648 7.84107C13.7914 8.03593 13.8934 8.21256 14.0489 8.33293C14.2044 8.4533 14.401 8.50778 14.5963 8.48463C14.7916 8.46148 14.9699 8.36255 15.093 8.20915L16.593 6.27415C16.7147 6.11687 16.769 5.91769 16.7438 5.72041C16.7187 5.52313 16.6172 5.34391 16.46 5.22215Z" fill="#107BC0"/>
<path fill-rule="evenodd" clip-rule="evenodd" d="M14.05 3.15C13.9712 3.2091 13.9048 3.28313 13.8546 3.36788C13.8045 3.45263 13.7715 3.54644 13.7575 3.64394C13.7436 3.74144 13.749 3.84073 13.7735 3.93614C13.7979 4.03155 13.8409 4.12121 13.9 4.2L15.4 6.2C15.5193 6.35913 15.697 6.46433 15.8939 6.49247C15.9914 6.50639 16.0907 6.50098 16.1861 6.47654C16.2815 6.45209 16.3712 6.4091 16.45 6.35C16.5288 6.29091 16.5952 6.21687 16.6454 6.13212C16.6955 6.04737 16.7285 5.95357 16.7425 5.85607C16.7564 5.75857 16.751 5.65928 16.7265 5.56387C16.7021 5.46846 16.6591 5.3788 16.6 5.3L15.1 3.3C14.9807 3.14087 14.803 3.03567 14.6061 3.00754C14.4092 2.97941 14.2091 3.03066 14.05 3.15Z" fill="#107BC0"/>
</svg>
