<svg width="221" height="63" viewBox="0 0 221 63" fill="none" xmlns="http://www.w3.org/2000/svg">
<path fill-rule="evenodd" clip-rule="evenodd" d="M34.0339 21.7339C34.0184 20.5736 33.0652 19.6458 31.9049 19.6615C30.7446 19.6773 29.8166 20.6307 29.8321 21.791L29.9647 31.7055C29.9802 32.8658 30.9334 33.7937 32.0937 33.7779C32.0983 33.7779 32.103 33.7778 32.1076 33.7777C32.1088 33.7777 32.1101 33.7776 32.1113 33.7776L41.8826 33.6449C43.052 33.629 43.9873 32.6682 43.9717 31.4987C43.9561 30.3293 42.9954 29.3941 41.8259 29.41L34.138 29.5144L34.0339 21.7339Z" fill="#CFE5F2"/>
<path fill-rule="evenodd" clip-rule="evenodd" d="M22.1176 29.3823C20.9481 29.3823 20 30.3304 20 31.5C20 32.6695 20.9481 33.6176 22.1176 33.6176H29.8047V41.3989C29.8047 42.5593 30.7454 43.5 31.9058 43.5C33.0662 43.5 34.0069 42.5593 34.0069 41.3989V31.5464C34.0072 31.531 34.0074 31.5155 34.0074 31.5C34.0074 31.4751 34.007 31.4504 34.0061 31.4258C33.9756 30.292 33.0469 29.3824 31.9058 29.3824C31.9045 29.3824 31.9031 29.3824 31.9018 29.3824C31.8978 29.3823 31.8938 29.3823 31.8898 29.3823H22.1176Z" fill="#CFE5F2"/>
<path d="M54.1694 22.008H60.9374C65.3294 22.008 69.5054 24.792 69.5054 30.504C69.5054 36.528 64.2734 39 60.5774 39H54.1694V22.008ZM57.1934 36.264H59.5694C63.1934 36.264 66.3374 34.632 66.3374 30.504C66.3374 26.376 63.6734 24.744 59.9774 24.744H57.1934V36.264ZM73.5804 21.84C74.6364 21.84 75.4524 22.584 75.4524 23.568C75.4524 24.6 74.6124 25.296 73.5804 25.296C72.5484 25.296 71.7564 24.504 71.7564 23.568C71.7564 22.632 72.5484 21.84 73.5804 21.84ZM75.0444 27.48V39H72.1644V27.48H75.0444ZM81.7828 39.288C79.4068 39.288 77.5828 37.944 77.5828 35.832C77.5828 33.168 79.7188 31.824 84.6628 31.824H85.5508V31.488C85.5508 30.144 84.4948 29.352 82.9108 29.352C81.7108 29.352 80.6308 29.832 79.8388 30.552L78.3268 29.04C79.3588 27.984 80.9668 27.192 83.2228 27.192C87.1588 27.192 88.1428 29.4 88.1428 32.112V39H85.5508V37.416H85.4788C84.6628 38.712 83.3188 39.288 81.7828 39.288ZM84.5428 33.84C81.9988 33.84 80.4628 34.392 80.4628 35.616C80.4628 36.6 81.4228 37.128 82.5028 37.128C84.4708 37.128 85.3828 36.024 85.3828 34.56V33.84H84.5428ZM99.5694 21.576C101.993 21.576 103.913 22.44 105.521 24.264L103.169 25.992C102.185 24.936 101.081 24.312 99.5934 24.312C96.1134 24.312 93.7614 27 93.7614 30.384C93.7614 33.888 96.0174 36.696 99.5934 36.696C101.201 36.696 102.449 35.856 103.409 34.632L105.905 36.408C104.441 38.472 102.065 39.432 99.5694 39.432C94.3374 39.432 90.5934 35.856 90.5934 30.576C90.5934 25.296 94.1454 21.576 99.5694 21.576ZM107.671 27.48H110.551V33.432C110.551 35.736 111.271 36.696 112.663 36.696C114.367 36.696 115.303 35.544 115.303 33.768V27.48H118.183V39H115.447V37.152H115.399C114.727 38.592 113.503 39.288 111.871 39.288C108.511 39.288 107.671 36.744 107.671 34.848V27.48ZM121.452 39V27.48H124.332V29.304H124.38C125.004 27.984 126.276 27.192 127.788 27.192C128.22 27.192 128.436 27.264 128.82 27.36V30.144C128.268 30 127.86 29.928 127.428 29.928C125.244 29.928 124.332 31.464 124.332 33V39H121.452ZM134.212 39.288C131.836 39.288 130.012 37.944 130.012 35.832C130.012 33.168 132.148 31.824 137.092 31.824H137.98V31.488C137.98 30.144 136.924 29.352 135.34 29.352C134.14 29.352 133.06 29.832 132.268 30.552L130.756 29.04C131.788 27.984 133.396 27.192 135.652 27.192C139.588 27.192 140.572 29.4 140.572 32.112V39H137.98V37.416H137.908C137.092 38.712 135.748 39.288 134.212 39.288ZM136.972 33.84C134.428 33.84 132.892 34.392 132.892 35.616C132.892 36.6 133.852 37.128 134.932 37.128C136.9 37.128 137.812 36.024 137.812 34.56V33.84H136.972ZM148.783 31.872V34.32H142.855V31.872H148.783ZM151.577 39V22.008H156.185L160.721 33.912L165.305 22.008H169.865V39H166.985V24.888H166.937L161.777 39H159.665L154.505 24.888H154.457V39H151.577ZM179.148 27.192C182.796 27.192 184.548 29.952 184.548 33.432V34.248H175.764C175.956 35.904 177.204 36.984 178.86 36.984C180.156 36.984 181.14 36.432 181.956 35.424L184.02 36.984C182.772 38.52 181.116 39.288 179.148 39.288C175.62 39.288 172.884 36.84 172.884 33.24C172.884 29.664 175.62 27.192 179.148 27.192ZM175.764 32.088H181.668C181.644 30.288 180.42 29.352 178.716 29.352C177.012 29.352 175.98 30.456 175.764 32.088ZM196.217 20.856H199.097V39H196.361V37.272H196.313C195.449 38.688 193.937 39.288 192.329 39.288C188.825 39.288 186.665 36.696 186.665 33.24C186.665 29.976 188.825 27.192 192.233 27.192C193.769 27.192 195.161 27.72 196.145 28.944H196.217V20.856ZM189.545 33.24C189.545 35.16 190.913 36.696 192.929 36.696C195.233 36.696 196.313 34.824 196.313 33.24C196.313 31.152 194.753 29.784 192.929 29.784C190.913 29.784 189.545 31.344 189.545 33.24Z" fill="#CFE5F2"/>
</svg>
