<svg width="30" height="30" viewBox="0 0 30 30" fill="none" xmlns="http://www.w3.org/2000/svg">
<g clip-path="url(#clip0_1238_11726)">
<path d="M16.9151 2.91675C17.4825 2.91689 18.0317 3.11665 18.4666 3.48104L18.6237 3.62483L23.9573 8.95841C24.3585 9.35961 24.6057 9.88917 24.6557 10.4543L24.6654 10.667V24.6667C24.6656 25.2764 24.4353 25.8637 24.0207 26.3107C23.6062 26.7578 23.0379 27.0316 22.4299 27.0774L22.2487 27.0834H7.7487C7.139 27.0836 6.55176 26.8533 6.1047 26.4388C5.65764 26.0242 5.3838 25.456 5.33807 24.848L5.33203 24.6667V5.33341C5.33184 4.72372 5.56211 4.13648 5.97667 3.68942C6.39124 3.24236 6.95947 2.96852 7.56745 2.92279L7.7487 2.91675H16.9151ZM14.9987 5.33341H7.7487V24.6667H22.2487V12.5834H16.8112C16.3305 12.5834 15.8695 12.3925 15.5296 12.0525C15.1897 11.7126 14.9987 11.2516 14.9987 10.7709V5.33341ZM14.9987 14.3959C15.3192 14.3959 15.6265 14.5232 15.8531 14.7498C16.0797 14.9764 16.207 15.2838 16.207 15.6042V17.4167H18.0195C18.34 17.4167 18.6473 17.5441 18.874 17.7707C19.1006 17.9973 19.2279 18.3046 19.2279 18.6251C19.2279 18.9456 19.1006 19.2529 18.874 19.4795C18.6473 19.7061 18.34 19.8334 18.0195 19.8334H16.207V21.6459C16.207 21.9664 16.0797 22.2737 15.8531 22.5003C15.6265 22.7269 15.3192 22.8542 14.9987 22.8542C14.6782 22.8542 14.3709 22.7269 14.1443 22.5003C13.9177 22.2737 13.7904 21.9664 13.7904 21.6459V19.8334H11.9779C11.6574 19.8334 11.3501 19.7061 11.1234 19.4795C10.8968 19.2529 10.7695 18.9456 10.7695 18.6251C10.7695 18.3046 10.8968 17.9973 11.1234 17.7707C11.3501 17.5441 11.6574 17.4167 11.9779 17.4167H13.7904V15.6042C13.7904 15.2838 13.9177 14.9764 14.1443 14.7498C14.3709 14.5232 14.6782 14.3959 14.9987 14.3959ZM17.4154 5.83366V10.1667H21.7484L17.4154 5.83366Z" fill="#64748B"/>
</g>
<defs>
<clipPath id="clip0_1238_11726">
<rect width="29" height="29" fill="white" transform="translate(0.5 0.5)"/>
</clipPath>
</defs>
</svg>
