<svg width="99" height="25" viewBox="0 0 99 25" fill="none" xmlns="http://www.w3.org/2000/svg">
<path d="M1.27963 5.672H5.79163C8.71963 5.672 11.5036 7.528 11.5036 11.336C11.5036 15.352 8.01562 17 5.55163 17H1.27963V5.672ZM3.29563 15.176H4.87963C7.29563 15.176 9.39163 14.088 9.39163 11.336C9.39163 8.584 7.61563 7.496 5.15163 7.496H3.29563V15.176ZM14.2203 5.56C14.9243 5.56 15.4683 6.056 15.4683 6.712C15.4683 7.4 14.9083 7.864 14.2203 7.864C13.5323 7.864 13.0043 7.336 13.0043 6.712C13.0043 6.088 13.5323 5.56 14.2203 5.56ZM15.1963 9.32V17H13.2763V9.32H15.1963ZM19.6885 17.192C18.1045 17.192 16.8885 16.296 16.8885 14.888C16.8885 13.112 18.3125 12.216 21.6085 12.216H22.2005V11.992C22.2005 11.096 21.4965 10.568 20.4405 10.568C19.6405 10.568 18.9205 10.888 18.3925 11.368L17.3845 10.36C18.0725 9.656 19.1445 9.128 20.6485 9.128C23.2725 9.128 23.9285 10.6 23.9285 12.408V17H22.2005V15.944H22.1525C21.6085 16.808 20.7125 17.192 19.6885 17.192ZM21.5285 13.56C19.8325 13.56 18.8085 13.928 18.8085 14.744C18.8085 15.4 19.4485 15.752 20.1685 15.752C21.4805 15.752 22.0885 15.016 22.0885 14.04V13.56H21.5285ZM31.5463 5.384C33.1623 5.384 34.4423 5.96 35.5143 7.176L33.9462 8.328C33.2903 7.624 32.5543 7.208 31.5623 7.208C29.2423 7.208 27.6743 9 27.6743 11.256C27.6743 13.592 29.1783 15.464 31.5623 15.464C32.6343 15.464 33.4663 14.904 34.1063 14.088L35.7703 15.272C34.7943 16.648 33.2103 17.288 31.5463 17.288C28.0583 17.288 25.5623 14.904 25.5623 11.384C25.5623 7.864 27.9303 5.384 31.5463 5.384ZM36.9474 9.32H38.8674V13.288C38.8674 14.824 39.3474 15.464 40.2754 15.464C41.4114 15.464 42.0354 14.696 42.0354 13.512V9.32H43.9554V17H42.1314V15.768H42.0994C41.6514 16.728 40.8354 17.192 39.7474 17.192C37.5074 17.192 36.9474 15.496 36.9474 14.232V9.32ZM46.1349 17V9.32H48.0549V10.536H48.0869C48.5029 9.656 49.3509 9.128 50.3589 9.128C50.6469 9.128 50.7909 9.176 51.0469 9.24V11.096C50.6789 11 50.4069 10.952 50.1189 10.952C48.6629 10.952 48.0549 11.976 48.0549 13V17H46.1349ZM54.6416 17.192C53.0576 17.192 51.8416 16.296 51.8416 14.888C51.8416 13.112 53.2656 12.216 56.5616 12.216H57.1536V11.992C57.1536 11.096 56.4496 10.568 55.3936 10.568C54.5936 10.568 53.8736 10.888 53.3456 11.368L52.3376 10.36C53.0256 9.656 54.0976 9.128 55.6016 9.128C58.2256 9.128 58.8816 10.6 58.8816 12.408V17H57.1536V15.944H57.1056C56.5616 16.808 55.6656 17.192 54.6416 17.192ZM56.4816 13.56C54.7856 13.56 53.7616 13.928 53.7616 14.744C53.7616 15.4 54.4016 15.752 55.1216 15.752C56.4336 15.752 57.0416 15.016 57.0416 14.04V13.56H56.4816ZM64.3554 12.248V13.88H60.4034V12.248H64.3554Z" fill="#107BC0"/>
<path d="M66.2183 17V5.672H69.2903L72.3143 13.608L75.3703 5.672H78.4103V17H76.4903V7.592H76.4583L73.0183 17H71.6103L68.1703 7.592H68.1383V17H66.2183ZM84.5988 9.128C87.0308 9.128 88.1988 10.968 88.1988 13.288V13.832H82.3428C82.4708 14.936 83.3028 15.656 84.4068 15.656C85.2708 15.656 85.9268 15.288 86.4708 14.616L87.8468 15.656C87.0148 16.68 85.9108 17.192 84.5988 17.192C82.2468 17.192 80.4228 15.56 80.4228 13.16C80.4228 10.776 82.2468 9.128 84.5988 9.128ZM82.3428 12.392H86.2788C86.2628 11.192 85.4468 10.568 84.3108 10.568C83.1748 10.568 82.4868 11.304 82.3428 12.392ZM95.9783 4.904H97.8983V17H96.0743V15.848H96.0423C95.4663 16.792 94.4583 17.192 93.3863 17.192C91.0503 17.192 89.6103 15.464 89.6103 13.16C89.6103 10.984 91.0503 9.128 93.3223 9.128C94.3463 9.128 95.2743 9.48 95.9303 10.296H95.9783V4.904ZM91.5303 13.16C91.5303 14.44 92.4423 15.464 93.7863 15.464C95.3223 15.464 96.0423 14.216 96.0423 13.16C96.0423 11.768 95.0023 10.856 93.7863 10.856C92.4423 10.856 91.5303 11.896 91.5303 13.16Z" fill="#094063"/>
</svg>
